<?xml version="1.0" encoding="utf-8"?>
<!-- Generator: Adobe Illustrator 21.0.0, SVG Export Plug-In . SVG Version: 6.00 Build 0)  -->
<svg version="1.1" id="Calque_1" xmlns="http://www.w3.org/2000/svg" xmlns:xlink="http://www.w3.org/1999/xlink" x="0px" y="0px"
	 viewBox="0 0 595.3 841.9" style="enable-background:new 0 0 595.3 841.9;" xml:space="preserve">
<style type="text/css">
	.st0{fill:#FFFFFF;stroke:#FFFFFF;stroke-miterlimit:10;}
	.st1{fill:#FEFEFE;stroke:#FFFFFF;stroke-miterlimit:10;}
</style>
<g>
	<g>
		<path class="st0" d="M365.6,372.1c-20.7,0-41.4-0.1-62,0.1c-2.6,0-3.4-0.6-3.3-3.3c0.1-21.4,0.1-42.8,0-64.2c0-3,0.6-4,3.9-3.9
			c41.3,0.1,82.7,0.1,124,0c2.3,0,3,0.6,3,3c-0.1,21.5-0.1,43,0,64.5c0,3-0.5,4-3.8,3.9C406.8,372,386.2,372.1,365.6,372.1z"/>
		<path class="st0" d="M365.5,264.3c-4.4,12.9-12.3,21.9-24.1,27c-8.8,3.8-17.9,4.5-27.2,2.2c-19.3-4.9-32.5-22.3-32.2-42.2
			c0.4-19.7,14.1-36.2,33.6-40.7c16.4-3.8,40.3,3.1,50.1,29.4c4.2-11.6,11-20.4,21.8-25.7c10.7-5.3,21.8-6.1,33.1-2.1
			c18.4,6.5,29.8,23.9,28.3,43.1c-1.5,19.7-15.3,35.3-34.7,39C398.3,297.2,375.3,290.5,365.5,264.3z M410.4,280.9
			c-0.2,3.3,1.4,4.7,4.3,3.9c5.7-1.6,10.8-4.3,15.1-8.4c2.3-2.2,1.9-4.1-1.1-5.5c-3.8-1.7-7.6-3.4-11.4-5c-2.6-1.1-4.5-0.4-5,2.5
			C411.6,272.6,411,276.8,410.4,280.9z M324.6,285.6c3-0.1,5.8-0.5,8.6-1.2c3.5-1,4.2-2.8,2.1-5.7c-2.5-3.3-5.1-6.6-7.7-9.8
			c-1.5-1.9-3.5-2.5-5.1-0.4c-2.9,3.6-5.7,7.3-8.2,11.2c-1.5,2.2-0.7,4,2.1,4.8C319.1,285.2,321.9,285.4,324.6,285.6z M324.3,218.8
			c-2.6,0.1-5.4,0.4-8.2,1.2c-2.8,0.8-3.4,2.7-1.9,4.9c2.5,3.7,5.3,7.3,8.1,10.8c1.5,1.8,3.4,1.9,4.9,0.1c2.9-3.4,5.7-7,8.4-10.6
			c1.7-2.2,0.8-4.3-1.9-5.1C330.7,219.3,327.7,218.8,324.3,218.8z M403.8,223.2c0-2.7-1.5-3.9-4.2-3.3c-5.7,1.2-10.7,3.8-14.9,7.7
			c-2.8,2.5-2.6,4.2,0.8,5.9c3.6,1.8,7.3,3.4,10.8,5.3c2.8,1.5,4.5,0.4,5.1-2.2C402.4,232.2,403,227.6,403.8,223.2z M401.7,280.8
			c-0.5-4.6-0.8-9-1.5-13.3c-0.4-2.6-2.1-3.7-4.6-2.7c-4,1.5-7.9,3-11.8,4.7c-3,1.3-3.3,3-1.1,5.4c4,4.3,8.9,7.4,14.5,9.1
			C400.1,284.9,401.7,283.5,401.7,280.8z M412.5,223.6c0.3,4.9,0.5,8.8,0.9,12.7c0.3,2.7,1.8,4.1,4.6,3.2c4-1.4,8.1-2.7,12-4.3
			c3-1.2,3.4-2.9,1.3-5.4c-3.6-4.3-8.2-7.1-13.4-9.1C414.1,219.2,412.5,220.4,412.5,223.6z M352.8,256.4c-3.5,0.6-7.7,1.1-11.9,2
			c-3.3,0.6-3.9,2-2.6,5c1.6,3.7,3.3,7.3,5,11c1.4,3.1,3.3,3.4,5.7,0.9c4.1-4.1,6.8-9.1,8.2-14.7
			C357.9,257.6,356.8,256.3,352.8,256.4z M373.8,251.9c0.2,2.5,0,5,0.7,7.4c1,3.3,2.6,4,5.4,2.1c3.4-2.3,6.8-4.7,10.1-7.3
			c2.5-1.9,2.6-3.8,0.2-5.8c-3.2-2.8-6.6-5.4-10.1-7.9c-2.2-1.6-4-0.9-4.9,1.7C374.1,245.3,373.6,248.6,373.8,251.9z M297.1,248
			c3.5-0.4,7.5-0.9,11.5-1.4c3.2-0.4,4.1-1.9,3-4.9c-1.5-3.9-3-7.7-4.8-11.5c-1.4-3.1-3.3-3.4-5.8-0.9c-4,4-6.8,8.9-8.3,14.3
			C291.9,246.8,293.1,248.1,297.1,248z M353.9,247.9c2.7,0,3.9-1.5,3.3-4.1c-1.4-6-4.4-11.2-8.9-15.5c-1.7-1.7-3.7-1.5-4.7,0.6
			c-2.1,4.2-4,8.6-5.8,13c-0.8,2,0.2,3.6,2.3,3.9C344.7,246.6,349.3,247.2,353.9,247.9z M296.2,256.6c-2.8-0.1-4.3,1.3-3.4,4.3
			c1.7,5.8,4.5,10.9,9,15c2,1.9,4,1.6,5.1-1c1.8-4.1,3.5-8.3,5-12.5c0.9-2.4-0.2-4-2.6-4.4C305.1,257.5,300.8,257.1,296.2,256.6z
			 M440.2,251.9c0-1.2,0.1-2.4,0-3.5c-0.1-1.1-0.4-2.1-0.6-3.1c-0.7-3.2-2.6-4.1-5.4-2.3c-3.3,2.1-6.5,4.2-9.7,6.5
			c-3.1,2.1-3.1,4-0.3,6.5c3,2.7,6.1,5.2,9.2,7.8c2.3,1.9,4.2,1.5,5.2-1.4C439.7,259,440.5,255.5,440.2,251.9z M325,244.4
			c-4.6-0.2-8.1,2.9-8.2,7.4c-0.2,4.5,2.9,8,7.5,8.2c4.3,0.3,8.1-3.1,8.3-7.5C332.8,248.2,329.4,244.6,325,244.4z M398.8,252.1
			c-0.1,4.4,3.3,7.9,7.8,7.9c4.5,0,8-3.4,8-7.8c0-4.4-3.3-7.8-7.8-7.9C402.2,244.4,398.9,247.6,398.8,252.1z"/>
		<path class="st0" d="M487.9,299.5c0,24.8,0,49.2,0,74.2c-8.3-3.7-16.1-7.2-24-10.7c-1.1-0.5-2.1-1.2-3.2-1.5
			c-5.2-1.4-8.2-4.2-6.9-10c0.4-1.6-0.3-2.6-2.1-2.3c-1.3,0.2-3.7-1.2-3.5,1.9c0.1,1.6-0.7,1.9-2.1,2c-8.4,0.6-8.4,0.6-8.4-7.9
			c0-7.4,0.1-14.7-0.1-22.1c-0.1-2.6,0.8-3.4,3.2-3.1c1.5,0.2,3.1,0.2,4.6,0.1c1.8-0.1,2.9,0,2.7,2.4c-0.2,2.4,1.9,1.5,3.1,1.6
			c1.3,0.1,3,0,2.5-1.9c-1.6-6.7,2.4-8.9,7.7-10.9c7.4-2.9,14.5-6.6,21.7-9.9C484.6,300.7,486.1,300.1,487.9,299.5z"/>
		<path class="st0" d="M412.5,441.9c-5-3.8-8.7-8.9-13-13.5c-6.2-6.5-12.2-13.2-18.8-20.3c-1.9,11.9-3.7,23.1-5.6,34.4
			c-0.1,0-0.3,0-0.4,0.1c-1.8-11.6-3.6-23.3-5.6-35.9c-10.8,11.7-20.9,22.7-31.1,33.8c-0.3-0.3-0.6-0.5-0.9-0.8
			c6.8-12.2,13.5-24.5,20.5-36.7c2-3.4,1.2-6.9,1.4-10.4c0.1-1.2-0.8-1.3-1.7-1.2c-1.1,0-2.1,0.1-3.2,0c-2.3-0.2-5.7,1.1-6.7-0.6
			c-1.5-2.5-0.4-6-0.5-9c0-1.5,1.1-1.2,2-1.2c17.1,0,34.2,0,51.3,0c1.7,0,2.2,0.5,2.3,2.2c0.4,8.7,0.5,8.6-6.5,8.7
			c-2.1,0-5.4-1.3-6.2,0.8c-1,2.7-1.1,6.1,0.4,9c1.3,2.6,2.9,5.2,4.3,7.8c5.6,10.1,11.2,20.1,16.8,30.2
			C411.7,440,412.1,441,412.5,441.9L412.5,441.9z"/>
		<path class="st0" d="M274.2,318.7c0-0.9,0-1.9,0-2.8c0-7.9,0-7.9,8-7.5c0.5,0,1.3-0.1,1.4,0.1c2.1,4.1,5.9,2,9,2.3
			c1.8,0.2,2.5,0.6,2.4,2.5c-0.1,3.9-0.1,7.8,0,11.7c0,1.7-0.4,2.4-2.2,2.3c-1.9-0.1-3.8,0-5.7,0c-1.2,0-2,0-2.8,1.4
			c-1,2.1-3.4,0.9-5.1,0.9c-6,0.1-4.9,0.5-4.9-4.8C274.2,322.7,274.2,320.7,274.2,318.7z"/>
		<path class="st0" d="M412.5,441.9c0.1,0.1,0.2,0.1,0.2,0.2C412.7,442,412.6,441.9,412.5,441.9
			C412.5,441.9,412.5,441.9,412.5,441.9z"/>
		<path class="st0" d="M410.4,280.9c0.6-4.1,1.2-8.3,1.9-12.5c0.5-2.9,2.3-3.7,5-2.5c3.8,1.6,7.6,3.3,11.4,5c3,1.4,3.3,3.3,1.1,5.5
			c-4.3,4.1-9.4,6.9-15.1,8.4C411.8,285.7,410.2,284.2,410.4,280.9z"/>
		<path class="st0" d="M324.6,285.6c-2.7-0.2-5.5-0.4-8.3-1.2c-2.8-0.8-3.5-2.6-2.1-4.8c2.5-3.9,5.3-7.6,8.2-11.2
			c1.7-2,3.6-1.4,5.1,0.4c2.6,3.2,5.2,6.4,7.7,9.8c2.1,2.9,1.4,4.7-2.1,5.7C330.4,285.2,327.6,285.5,324.6,285.6z"/>
		<path class="st1" d="M324.3,218.8c3.4,0,6.4,0.5,9.4,1.4c2.8,0.8,3.6,2.9,1.9,5.1c-2.7,3.6-5.5,7.1-8.4,10.6
			c-1.5,1.7-3.4,1.7-4.9-0.1c-2.8-3.5-5.5-7.1-8.1-10.8c-1.5-2.2-0.9-4.1,1.9-4.9C318.9,219.2,321.7,218.9,324.3,218.8z"/>
		<path class="st1" d="M403.8,223.2c-0.8,4.4-1.4,8.9-2.4,13.4c-0.6,2.5-2.3,3.6-5.1,2.2c-3.6-1.9-7.3-3.4-10.8-5.3
			c-3.3-1.7-3.5-3.4-0.8-5.9c4.3-3.9,9.2-6.6,14.9-7.7C402.3,219.4,403.8,220.5,403.8,223.2z"/>
		<path class="st0" d="M401.7,280.8c0.1,2.7-1.6,4.1-4.5,3.2c-5.7-1.7-10.5-4.8-14.5-9.1c-2.2-2.4-1.9-4.1,1.1-5.4
			c3.9-1.7,7.9-3.2,11.8-4.7c2.6-1,4.3,0.1,4.6,2.7C400.8,271.8,401.2,276.1,401.7,280.8z"/>
		<path class="st1" d="M412.5,223.6c0-3.2,1.6-4.4,5.5-2.9c5.1,2,9.8,4.8,13.4,9.1c2.1,2.5,1.7,4.2-1.3,5.4c-4,1.5-8,2.9-12,4.3
			c-2.8,1-4.4-0.4-4.6-3.2C413,232.4,412.8,228.5,412.5,223.6z"/>
		<path class="st0" d="M352.8,256.4c4-0.2,5.1,1.2,4.3,4.3c-1.4,5.6-4.1,10.6-8.2,14.7c-2.4,2.4-4.3,2.1-5.7-0.9
			c-1.7-3.6-3.4-7.3-5-11c-1.3-3-0.6-4.4,2.6-5C345.1,257.6,349.3,257,352.8,256.4z"/>
		<path class="st0" d="M373.8,251.9c-0.2-3.4,0.3-6.6,1.4-9.8c0.9-2.6,2.7-3.3,4.9-1.7c3.4,2.5,6.8,5.1,10.1,7.9
			c2.4,2,2.3,3.9-0.2,5.8c-3.3,2.5-6.6,4.9-10.1,7.3c-2.8,1.9-4.4,1.2-5.4-2.1C373.8,256.9,374,254.4,373.8,251.9z"/>
		<path class="st0" d="M297.1,248c-4,0.1-5.2-1.2-4.3-4.5c1.5-5.5,4.3-10.3,8.3-14.3c2.5-2.5,4.4-2.2,5.8,0.9
			c1.7,3.8,3.3,7.6,4.8,11.5c1.1,3,0.2,4.5-3,4.9C304.7,247.1,300.7,247.5,297.1,248z"/>
		<path class="st0" d="M353.9,247.9c-4.6-0.7-9.1-1.3-13.7-2.1c-2.2-0.4-3.1-1.9-2.3-3.9c1.8-4.4,3.6-8.7,5.8-13
			c1.1-2.1,3-2.2,4.7-0.6c4.4,4.3,7.4,9.5,8.9,15.5C357.8,246.4,356.5,247.9,353.9,247.9z"/>
		<path class="st0" d="M296.2,256.6c4.6,0.5,8.8,0.9,13,1.5c2.4,0.3,3.5,2,2.6,4.4c-1.6,4.2-3.2,8.4-5,12.5c-1.1,2.5-3.1,2.9-5.1,1
			c-4.4-4.1-7.3-9.3-9-15C292,257.9,293.4,256.5,296.2,256.6z"/>
		<path class="st0" d="M440.2,251.9c0.2,3.6-0.5,7.1-1.6,10.4c-1,2.8-2.9,3.2-5.2,1.4c-3.1-2.5-6.2-5.1-9.2-7.8
			c-2.9-2.5-2.8-4.4,0.3-6.5c3.2-2.2,6.5-4.4,9.7-6.5c2.8-1.8,4.6-0.9,5.4,2.3c0.2,1,0.5,2.1,0.6,3.1
			C440.3,249.5,440.2,250.7,440.2,251.9z"/>
		<path class="st0" d="M325,244.4c4.4,0.2,7.8,3.8,7.6,8.2c-0.2,4.3-4,7.7-8.3,7.5c-4.5-0.3-7.6-3.7-7.5-8.2
			C317,247.3,320.4,244.2,325,244.4z"/>
		<path class="st0" d="M398.8,252.1c0.1-4.5,3.4-7.8,7.9-7.7c4.5,0,7.9,3.4,7.8,7.9c0,4.4-3.5,7.8-8,7.8
			C402.2,260,398.8,256.6,398.8,252.1z"/>
	</g>
</g>
</svg>
