<?xml version="1.0" encoding="utf-8"?>
<!-- Generator: Adobe Illustrator 21.0.0, SVG Export Plug-In . SVG Version: 6.00 Build 0)  -->
<svg version="1.1" id="Calque_1" xmlns="http://www.w3.org/2000/svg" xmlns:xlink="http://www.w3.org/1999/xlink" x="0px" y="0px"
	 viewBox="0 0 595.3 841.9" style="enable-background:new 0 0 595.3 841.9;" xml:space="preserve">
<style type="text/css">
	.st0{fill:#FFFFFF;}
</style>
<g>
	<g>
		<path class="st0" d="M549.7,693.9c0.3-2.6,0.3-2.7-2.8-3.6c-29.3-8.8-59.2-15.5-88.2-25.4c-9.2-3.1-18.8-5.2-28.2-7.9
			C392,646.2,353.4,635.6,315,624c-37.7-11.4-75.9-20.9-113.6-32.3c-39.6-11.9-79.5-22.6-119.3-33.9C78,556.7,74,555,70,553.5
			c-1.7-0.6-3.4-0.9-3.8,1.6c-0.7,4.3-2.9,8.1-4.1,12.2c-5.6,19-10.8,38.1-16.3,57.2c-0.7,2.6,0.3,3.3,2.4,4.3
			c6.4,3.1,13.3,4.2,19.9,6.3c38.8,11.8,78.3,21.1,117,33.5c23.5,7.5,47.5,13.1,71.2,20.1c20.4,6,41.1,11,61.3,17.9
			c15.9,5.4,32.4,8.9,48.5,13.7c27.4,8,55.2,15,82.4,23.7c24.6,7.8,49.7,13.9,74.5,21.1c4.3,1.2,6.1,0.8,7.3-3.8
			c4.3-16.4,8.9-32.8,13.8-49C545.9,706,548.2,700.1,549.7,693.9z M271.8,700.1c-1.8-0.8-2.7-1.3-3.6-1.5
			c-36.7-10.2-73.4-20.5-110.1-30.7c-1.8-0.5-3.6-0.4-5.4,0.1c-31.7,8.8-63.5,17.7-95.3,26.4c-3.9,1.1-4.3,2.5-3.4,6.3
			c4.1,17.8,11.4,34.7,15.5,52.5c1,4.2,2.5,5.2,6.8,3.9c21.7-6.4,43.5-12.3,65.1-18.9c24.3-7.5,49.1-13.6,73.5-20.7
			C233.6,712,252.6,707.7,271.8,700.1z M323.3,618.8c1.3,0.7,1.8,1.1,2.4,1.3c24.8,6.6,48.9,15.2,73.7,21.6c9.4,2.4,19,4.7,28.1,8.5
			c4.1,1.7,8.9,3.9,13.1,2.7c5.1-1.4,10.3-3.1,15.4-4.6c27-7.7,54.1-15.2,80.9-23.7c2.8-0.9,4.8-1.5,3.6-5.4
			c-5.3-18.1-10.3-36.2-15.4-54.3c-0.7-2.6-1.7-3.4-4.6-2.6c-19,5.4-38.2,10.5-57.2,15.9c-19.9,5.7-39.8,11.3-59.6,17.6
			c-22.2,7.1-44.8,12.6-67.2,18.9C332.5,615.9,328.2,617.3,323.3,618.8z"/>
		<path class="st0" d="M359.3,410.7c8.5,17.4,13.7,35.9,16.9,54.9c4.2,24.8-0.1,48.4-13.6,69.5c-9.1,14.1-18.2,28.3-29.1,41.2
			c-1.5,1.8-3.6,3.1-6,3.1c-15,0.5-29.9,2.2-44.9,0.9c-4.4-0.4-5.9-1.6-5.6-6.2c2.4-38.4,0.1-76.5-7.9-114.2
			c-0.3-1.5-0.8-2.9-1.2-4.3c-1.9-11.5-5.6-22.6-9-33.7c-6.7-22-17.1-42.4-25.4-63.8c-6.1-15.7-12.4-31.3-19.7-46.4
			c-6.8-14-11.1-28.8-16.5-43.2c-1-2.7-1-4.8,0.6-7.4c5.1-8,11-15.4,16.1-23.3c14.2-22.3,24.7-46.3,32.1-71.7
			c3.8-13.2,6.8-26.4,7.9-40c1.9-22.9,1.6-45.8-0.3-68.7c-1-12.1-1.6-24.2-2.3-36.9c2.8,4.5,5.9,8.8,8.4,13.4
			c6.4,11.7,12.5,23.5,18.7,35.3c11.7,22.3,20.8,45.7,27.8,69.8c6.4,21.9,12.1,43.8,12.3,67c0.5,35.9,6.4,71.3,12.9,106.5
			c5.5,30.3,13.5,60,24.3,89C357.1,404.5,358.2,407.6,359.3,410.7z"/>
		<path class="st0" d="M464,447.5c-6.4,16.5-13.3,32.6-22.8,47.6c-3,4.6-6.8,8.6-10,12.9c-8.9,12.1-18,24.1-29.8,33.4
			c-11.9,9.4-22.3,20.9-36.6,27c-3.6,1.5-7.3,2.8-11.3,4.3c-0.2-3.8,2-5.9,3.6-7.9c9.6-12.5,17.9-25.8,24.1-40.3
			c12.4-29.3,13.6-59.1,3-89.1c-3-8.5-6-17-10.2-24.9c-4.4-12.5-9.9-24.6-14.6-37c-4.8-12.7-8.2-26-11.3-39.3
			c-1.5-6.6-3.6-13.1-4.7-19.7c-3-18.5-6.3-37-8.2-55.7c-1.8-18.2-2.6-36.5-3.8-54.8c-0.5-7.7,2.7-14.3,4.7-21.2
			c4.4-14.9,11.1-28.9,19.3-42.1c4.3-6.9,10.1-12.9,15.4-19.6c1.9,2.9,1.3,5.3,1.4,7.5c0.6,26.9,2.2,53.6,9,79.7
			c3.2,12.4,6.7,24.8,13,36.1c6.7,12,13.4,24,22.1,34.9c11.6,14.5,24.7,27.9,33.2,44.7c18.3,35.8,26.4,73.1,16.8,113
			C465.5,440.4,463.7,443.7,464,447.5z"/>
		<path class="st0" d="M255.7,456.5c7.2,31.6,10.8,63.7,10.1,96.2c-0.1,6.8-0.6,13.6-0.7,20.4c-0.1,4.1-0.6,5.5-5.8,4.6
			c-17.9-3.1-34-10.6-48.6-20.9c-10.3-7.3-19.9-15.6-29.3-24.1c-13.3-12.1-23.8-26.3-34.2-40.7c-6.2-12.2-14-23.7-18-37.1
			c-5.5-17.8-5.6-36-4.6-54.4c1.4-24.1,6-47.7,11.4-71c3.3-14,7.1-28,9.8-42.1c5.3-28.4,6.8-57.2,7.3-86c0-1.9,0-3.9,1.1-6.1
			c2.9,7.8,5.9,15.7,8.8,23.5c4,10.7,8.1,21.4,13,31.8c6.7,14.5,12.2,29.5,18.1,44.4c5.5,13.8,10.2,27.9,16.4,41.3
			c14.1,30.4,24.9,61.9,36.5,93.2C250.4,438.5,252.5,447.6,255.7,456.5z"/>
		<path class="st0" d="M549.7,693.9c-1.4,6.2-3.8,12-5.6,18.1c-4.9,16.3-9.5,32.6-13.8,49c-1.2,4.6-3,5.1-7.3,3.8
			c-24.8-7.1-49.9-13.2-74.5-21.1c-27.3-8.7-55-15.7-82.4-23.7c-16.1-4.7-32.6-8.2-48.5-13.7c-20.2-6.9-40.9-11.9-61.3-17.9
			c-23.6-6.9-47.7-12.6-71.2-20.1c-38.7-12.4-78.2-21.7-117-33.5c-6.7-2-13.6-3.2-19.9-6.3c-2.2-1.1-3.2-1.7-2.4-4.3
			c5.5-19,10.7-38.2,16.3-57.2c1.2-4.1,3.4-7.9,4.1-12.2c0.4-2.5,2.2-2.1,3.8-1.6c4.1,1.4,8,3.2,12.2,4.3
			c39.8,11.3,79.7,21.9,119.3,33.9c37.7,11.4,75.9,20.8,113.6,32.3c38.4,11.6,77,22.3,115.5,33.1c9.4,2.6,19,4.7,28.2,7.9
			c29,9.9,58.9,16.6,88.2,25.4C550,691.3,550,691.3,549.7,693.9z"/>
		<path class="st0" d="M271.8,700.1c-19.2,7.7-38.2,11.9-56.8,17.3c-24.4,7.1-49.2,13.2-73.5,20.7c-21.6,6.7-43.4,12.5-65.1,18.9
			c-4.3,1.3-5.9,0.3-6.8-3.9c-4.1-17.8-11.5-34.6-15.5-52.5c-0.9-3.7-0.5-5.2,3.4-6.3c31.8-8.7,63.5-17.6,95.3-26.4
			c1.8-0.5,3.6-0.6,5.4-0.1c36.7,10.2,73.4,20.5,110.1,30.7C269.1,698.8,270,699.3,271.8,700.1z"/>
		<path class="st0" d="M323.3,618.8c5-1.5,9.2-2.9,13.5-4.1c22.4-6.2,45.1-11.8,67.2-18.9c19.7-6.3,39.6-11.9,59.6-17.6
			c19-5.4,38.2-10.5,57.2-15.9c2.8-0.8,3.8-0.1,4.6,2.6c5,18.1,10.1,36.2,15.4,54.3c1.1,3.9-0.8,4.4-3.6,5.4
			c-26.8,8.6-53.9,16-80.9,23.7c-5.1,1.5-10.3,3.1-15.4,4.6c-4.2,1.2-9-1-13.1-2.7c-9.1-3.8-18.6-6.1-28.1-8.5
			c-24.8-6.4-49-15-73.7-21.6C325.1,619.9,324.6,619.5,323.3,618.8z"/>
	</g>
</g>
</svg>
