<?xml version="1.0" encoding="utf-8"?>
<!-- Generator: Adobe Illustrator 21.0.0, SVG Export Plug-In . SVG Version: 6.00 Build 0)  -->
<svg version="1.1" id="Calque_1" xmlns="http://www.w3.org/2000/svg" xmlns:xlink="http://www.w3.org/1999/xlink" x="0px" y="0px"
	 viewBox="0 0 595.3 841.9" style="enable-background:new 0 0 595.3 841.9;" xml:space="preserve">
<style type="text/css">
	.st0{fill:#FFFFFF;}
</style>
<g>
	<g>
		<path class="st0" d="M436.5,500.9c-17.4-20.9-34.7-41.7-52-62.5c-3.8,3.1-7.3,5.9-11.5,9.3c9.1,20.3,18.3,41,27.9,62.4
			c-11.5,2.6-22.7,5.2-34.8,7.9c-3.9-19.9-7.7-39.6-11.5-59c-3,0-5.7,0.1-8.3,0c-9-0.3-16-7-17.6-16.8c-1.3-7.7,3.1-14,11.6-17.5
			c6.1-2.6,12.3-5.1,18-8.6c19.9-12.2,27.1-30.6,25.3-53.2c-1.4-17.4-7.2-33.6-13.2-50.4c4.6,4.3,9.3,8.4,13.7,13
			c2.7,2.9,5,6.2,7.1,9.6c5.9,9.2,5.9,9.2,16.4,5.4c50.9-18.5,101.8-37,153.2-55.6c-0.3,1.2-0.4,2.1-0.6,3
			c-6.3,19.3-12.6,38.5-18.7,57.8c-0.9,2.9-2.1,4.1-5.3,4.5c-34.2,4.1-68.3,8.5-102.5,12.8c-9.9,1.2-19.7,2.6-29.6,3.9
			c0,5,0,9.7,0,14.8c41.3,3.9,82.5,7.7,124.3,11.6c-8.7,16.8-17.1,33.3-25.8,50c-33.8-12.8-67.4-25.4-100.9-38.1
			c-1.9,4.4-3.7,8.7-5.7,13.5c25.6,19,51.4,38.1,77.5,57.4C460.7,484.5,448.7,492.7,436.5,500.9z"/>
		<path class="st0" d="M193.8,381.6c0-5,0-9.6,0-14.8c-10.1-1.3-20.2-2.6-30.4-3.9c-25.4-3.2-50.8-6.4-76.2-9.6
			c-8.7-1.1-17.5-2.1-26.2-3.5c-1.4-0.2-3.4-1.5-3.8-2.8c-6.8-20.4-13.5-41-20.4-62.2c1.7,0.5,2.9,0.8,4,1.2
			c51.7,18.8,103.4,37.5,155,56.4c4.2,1.5,6.2,1.2,8.4-3.1c5.5-10.8,13.6-19.5,24.6-27.3c-2,5.1-3.6,9-5.2,13
			c-5.3,13.7-9.3,27.8-9.6,42.6c-0.5,24.1,10.4,41.4,31.9,52c4,2,8.3,3.5,12.4,5.2c8.2,3.3,11.9,9.6,10.7,18.1
			c-1.2,8.3-8.3,15.3-16.3,15.8c-3,0.2-5.9,0-9.4,0c-3.7,19.3-7.6,38.9-11.5,59.1c-11.7-2.6-23.1-5.2-34.9-7.8
			c9.5-21.2,18.8-41.9,27.9-62.5c-3.9-3.2-7.6-6.2-11.5-9.3c-17.2,20.7-34.5,41.4-52,62.5c-12.1-8.2-24.2-16.3-36.8-24.9
			c26.1-19.3,51.8-38.4,77.5-57.4c-1.9-4.6-3.7-8.9-5.6-13.5c-33.4,12.6-66.9,25.3-101,38.1c-8.6-16.6-17.1-33.1-25.8-50
			C111.2,389.3,152.2,385.5,193.8,381.6z"/>
		<path class="st0" d="M337.2,480.8c-4.9,2.7-9.3,4.8-13.4,7.3c-14.8,9.1-17.4,13.2-12,31.9c2.3,7.8,2.1,14.1-0.7,21.2
			c-4.5,11.9-8.4,24-13,37.2c-1.3-3.3-2.2-5.6-3-7.8c-4.7-12.6-9.4-25.2-13.9-37.9c-0.6-1.8-0.7-4.3,0.1-5.9
			c3.8-7.9,4.9-16.2,4.5-24.8c-0.1-1.6-1-3.7-2.2-4.7c-5.4-4.3-11.1-8.4-16.7-12.4c-2.1-1.5-4.6-2.5-7.7-4.1
			c2.4-2.3,4.5-4.2,6.5-6.1c5.9-5.9,9.9-12.8,11.5-21.1c0.9-4.3,2.1-9,4.6-12.6c7.5-10.8,12-22.8,16.6-35.4
			c1.8,5.5,3.4,11.1,5.5,16.4c1.6,3.9,3.8,7.6,5.8,11.4c3.1,6.2,7.1,12.2,9.1,18.7C322.2,463.3,327.5,472.9,337.2,480.8z"/>
		<path class="st0" d="M338.9,329.3c13.5,20.6,26.6,40.7,40.1,61.3c-27,0-53.2,0-80.3,0C312,370.1,325.2,350,338.9,329.3z"/>
		<path class="st0" d="M298.4,266.9c13.5,20.9,26.6,41.1,40.2,61.9c-26.9,0-53.1,0-80,0C271.9,308.1,284.9,287.8,298.4,266.9z"/>
		<path class="st0" d="M258,329.6c13.6,20.6,26.7,40.5,40.1,61c-26.6,0-52.5,0-79.3,0C231.9,370.2,244.7,350.3,258,329.6z"/>
		<path class="st0" d="M366.6,575.3c2.7-7.3,5.3-14.5,8.1-22.1c-9.5,0-18.5,0-28,0c1.6,5.6,3,10.9,4.9,17.6
			c-7.9-7.1-14.8-13-21.3-19.4c-1.6-1.6-2.6-5.2-1.9-7c0.7-1.7,4.1-2.5,6.4-3.3c1.3-0.4,2.9-0.1,5.3-0.1c-4.4-7-8.3-13.2-12.3-19.5
			c-1.1-1.7-2.2-3.3-3.2-5.1c-3.2-5.6-2.2-10.8,2.5-13.4c5.3-3,11.4-1.2,14.3,4.7c4.3,9,8.6,18,12.3,27.2c1.9,4.6,4.2,6.5,9.4,6.3
			c10.6-0.5,21.3-0.3,31.9,0c2.5,0.1,4.9,1.9,7.4,2.9c-1.3,2.4-2,5.4-3.9,7c-10.2,8.5-20.7,16.6-31.1,24.8
			C367.2,575.6,366.9,575.5,366.6,575.3z"/>
		<path class="st0" d="M256.8,541c2.5,0,4.3-0.4,5.8,0.1c2.2,0.7,5.5,1.7,5.9,3.3c0.6,2.1-0.5,5.4-2,7.1c-3.4,3.8-7.5,7.1-11.4,10.5
			c-2.8,2.5-5.7,5.1-9.8,8.7c1.8-6.6,3.3-11.8,4.8-17.4c-9.4,0-18.3,0-27.9,0c2.7,7.5,5.3,14.8,8,22.1c-0.3,0.2-0.5,0.3-0.8,0.5
			c-10.7-8.5-21.4-16.8-31.9-25.5c-1.7-1.4-2.2-4.2-3.2-6.3c2.3-1,4.5-2.8,6.8-2.9c11.5-0.3,23-0.3,34.5-0.1
			c3.6,0.1,5.2-1.2,6.6-4.4c4-9.5,8.2-18.9,12.9-28.1c1.4-2.8,4.5-5.4,7.4-6.5c3.7-1.4,8.3-0.3,9.8,3.7c1.2,3,1.2,7.4-0.2,10.2
			c-3.3,6.7-7.8,12.8-11.8,19.1C259.4,536.7,258.4,538.4,256.8,541z"/>
	</g>
</g>
</svg>
