<?xml version="1.0" encoding="utf-8"?>
<!-- Generator: Adobe Illustrator 21.0.0, SVG Export Plug-In . SVG Version: 6.00 Build 0)  -->
<svg version="1.1" id="Calque_1" xmlns="http://www.w3.org/2000/svg" xmlns:xlink="http://www.w3.org/1999/xlink" x="0px" y="0px"
	 viewBox="0 0 283.5 283.5" style="enable-background:new 0 0 283.5 283.5;" xml:space="preserve">
<style type="text/css">
	.st0{fill:#FFFFFF;}
</style>
<g>
	<path class="st0" d="M142.1,203.3c-33.9,0-61.5-27.6-61.5-61.5s27.6-61.5,61.5-61.5c33.9,0,61.5,27.6,61.5,61.5
		S176,203.3,142.1,203.3z M142.1,83.2c-32.3,0-58.5,26.3-58.5,58.5s26.3,58.5,58.5,58.5c32.3,0,58.5-26.3,58.5-58.5
		S174.4,83.2,142.1,83.2z"/>
	<path class="st0" d="M129.1,132.6h5.6v-5.4c0-2.4,0.1-6.1,1.8-8.4c1.8-2.4,4.3-4.1,8.7-4.1c7,0,10,1,10,1l-1.4,8.3
		c0,0-2.3-0.7-4.5-0.7c-2.2,0-4.1,0.8-4.1,2.9v6.3h8.9l-0.6,8.1h-8.3v28.1h-10.5v-28.1h-5.6V132.6z"/>
</g>
</svg>
