<?xml version="1.0" encoding="utf-8"?>
<!-- Generator: Adobe Illustrator 21.0.0, SVG Export Plug-In . SVG Version: 6.00 Build 0)  -->
<svg version="1.1" id="Calque_1" xmlns="http://www.w3.org/2000/svg" xmlns:xlink="http://www.w3.org/1999/xlink" x="0px" y="0px"
	 viewBox="0 0 595.3 841.9" style="enable-background:new 0 0 595.3 841.9;" xml:space="preserve">
<style type="text/css">
	.st0{fill:#262223;}
	.st1{fill:#FFFFFF;}
</style>
<g>
	<g>
		<path class="st0" d="M469,445.8c0,1.9,0,3.6,0,5.3c0,7.8,0,15.6,0,23.3c0,1.3,0.1,1.2-1.2,1.2c-0.7,0-1.4,0-2.1,0
			c-31.7,0-63.4,0-95.1,0c-0.2,0-0.4,0-0.7,0c-1,0-1,0-1.3-0.9c-2-5.8-4-11.5-6.1-17.3c-0.4-1.1-0.4-1.1-1.5-1.1
			c-11,0-21.9,0-32.9-0.1c-1.4,0-1.1-0.2-1.6,1.1c-2.3,5.8-4.6,11.6-7,17.4c-0.3,0.9-0.4,0.9-1.3,0.9c-15.1,0-30.2,0-45.2,0
			c-0.3,0-0.5,0-0.8,0c-0.1-0.5,0.1-0.8,0.2-1.2c5.7-19.3,11.5-38.6,17.2-58c6.3-21.3,12.6-42.6,19-63.9c0.5-1.5,0.1-1.3,1.7-1.3
			c21.8,0,43.6,0,65.3,0c1.3,0,1.3,0,1.6,1.2c11.5,37.3,23.1,74.6,34.6,111.9c0.7,2.2,1.4,4.3,2,6.5c0.2,0.8,0.6,1.4,1.1,2
			c0.6,0.8,1.2,1.6,1.9,2.3c0.4-0.1,0.2-0.3,0.3-0.5c0-0.3,0-0.7,0-1c0-40.2,0-80.4,0-120.6c0-1.7-0.2-1.4,1.4-1.4
			c16.7-0.1,33.3-0.2,50-0.3c10.1-0.1,20.3-0.1,30.4-0.2c6.3-0.1,12.6,0.7,18.5,2.9c13.8,5.1,22.1,15,24.6,29.5
			c1.4,7.7,1,15.4-1.3,23c-2.3,7.7-7,13.6-14,17.6c-1.5,0.9-3.1,1.7-4.6,2.4c-0.7,0.3-0.7,0.6-0.2,1.1c0.5,0.6,1.2,0.9,1.9,1.1
			c2,0.7,4.1,0.9,6.2,1.1c1.3,0.1,2.7,0.1,4,0.1c16.3,0,32.5,0,48.8,0c0.2,0,0.4,0,0.7,0c0.8,0,0.8,0,0.8,0.8c0,0.2,0,0.4,0,0.7
			c0,14.3,0,28.6,0,42.9c0,0.1,0,0.3,0,0.4c0,1,0.1,1-1,1c-22.7,0-45.4,0-68.1,0c-6.1,0-11.8-1.7-17.3-4.3
			c-6.6-3.2-12.3-7.5-17.5-12.6c-3.9-3.7-7.4-7.7-10.7-11.9C469.7,446.5,469.6,446.1,469,445.8z M463.9,428.8c0.1,0,0.2,0,0.2,0
			c1.1,1.7,2.1,3.5,3.2,5.2c4.4,7.4,9.7,14.1,15.8,20.1c4.7,4.7,9.9,8.8,15.8,11.9c5.8,3,11.9,4.6,18.4,4.6c20.2-0.1,40.4,0,60.6,0
			c0.3,0,0.5,0,0.8,0c0.6,0.1,0.8-0.1,0.8-0.7c0-0.2,0-0.4,0-0.6c0-11,0-22,0-33c0-1.5,0.2-1.3-1.3-1.3c-15,0-30,0-45,0
			c-2.3,0-4.6-0.1-6.9-0.5c-2-0.3-3.9-0.8-5.7-1.8c-2.2-1.2-3.6-2.9-4-5.4c-0.1-0.9,0-1.8,0-2.7c0-0.8,0.4-1.2,1-1.5
			c2.2-1.1,4.4-2.1,6.5-3.3c6.4-3.6,10.5-9,12.4-16.1c1.5-5.5,1.7-11.1,1.2-16.7c-0.5-5-1.9-9.7-4.4-14.1
			c-4.2-7.2-10.4-11.8-18.2-14.4c-5.3-1.8-10.7-2.3-16.2-2.3c-19.4,0.1-38.7,0.2-58.1,0.3c-5.9,0-11.7,0.1-17.6,0.1
			c-0.9,0-0.9,0-0.9,0.8c0,0.1,0,0.2,0,0.3c0,37.2,0,74.3,0,111.5c0,1.4-0.1,1.2,1.3,1.2c13,0,26,0,39,0c1.4,0,1.2,0.2,1.2-1.2
			c0-13.1,0-26.3,0-39.4C463.9,429.5,463.9,429.1,463.9,428.8z M408.6,470.5c0.1-0.4-0.1-0.7-0.2-1.1c-6.1-19.6-12.2-39.2-18.2-58.8
			c-5.5-17.8-11-35.6-16.5-53.4c-0.3-0.9-0.3-0.9-1.3-0.9c-0.1,0-0.3,0-0.4,0c-19.1,0-38.3,0-57.4,0c-0.3,0-0.5,0-0.8,0
			c-0.6-0.1-0.9,0.1-1,0.7c0,0.3-0.1,0.5-0.2,0.7c-4.3,14.6-8.6,29.1-13,43.7c-6.7,22.6-13.4,45.2-20.1,67.7
			c-0.1,0.4-0.4,0.8-0.2,1.3c0.4,0.1,0.7,0.1,1.1,0.1c11.5,0,23,0,34.4,0c1.3,0,1,0.2,1.5-1c2.3-5.8,4.6-11.6,7-17.4
			c0.4-1,0.4-1,1.4-0.9c5.3,0,10.6,0,15.9,0c8.1,0,16.1,0,24.2,0c1.2,0,1-0.1,1.4,1c1.3,3.6,2.5,7.2,3.8,10.8
			c0.8,2.3,1.6,4.6,2.4,6.9c0.2,0.5,0.4,0.8,0.9,0.7c0.1,0,0.3,0,0.4,0c11.3,0,22.5,0,33.8,0C407.9,470.5,408.2,470.6,408.6,470.5z"
			/>
		<path class="st0" d="M528.4,526.5c0.1,0.5,0.5,0.7,0.7,1c6.6,6.9,12.6,14.4,17.3,22.7c1.8,3.1,3.2,6.3,4.4,9.7
			c1.9,5.6,2.5,11.2,1.1,17c-1.7,7-4.6,13.3-9.3,18.7c-5,5.7-11.2,9.4-18.5,11.1c-4.8,1.1-9.7,1.6-14.6,1.6c-16.1-0.1-32.2,0-48.2,0
			c-12,0-24-0.1-36,0c-7.3,0.1-14.1-1.7-20.6-5.1c-6.2-3.2-11.6-7.5-16.5-12.3c-3.5-3.4-6.7-7-9.7-10.9c-0.2-0.3-0.4-0.6-0.7-0.9
			c-0.2,0.4-0.1,0.7-0.1,0.9c0,8.9,0,17.8-0.1,26.7c0,1.6,0.2,1.3-1.4,1.3c-16.3,0-32.6,0-48.9,0c-0.2,0-0.4,0-0.7,0
			c-0.6,0.1-0.8-0.2-0.7-0.8c0-0.2,0-0.4,0-0.7c0-40.4,0-80.8,0-121.2c0-1.4,0-1.4,1.4-1.4c21.9,0.1,43.7,0.2,65.6,0.3
			c6,0,12,0,18,0.2c6.9,0.1,13.6,1.6,19.8,4.7c10.7,5.4,17.3,14,19.8,25.6c1.8,8,1.5,16-0.6,24c-2.2,8.3-7.1,14.6-14.7,18.8
			c-1.4,0.8-2.9,1.5-4.4,2.3c0.4,0.8,1.2,1.1,1.8,1.5c1.8,0.9,3.7,1.4,5.6,1.6c3.5,0.4,7.1,0.2,10.7,0.2c11.3,0,22.6-0.2,33.9-0.2
			c4.1,0,8.1,0,12.3,0c-0.1-0.6-0.5-0.8-0.8-1.1c-3.7-3.6-7.4-7.3-10.6-11.3c-3.5-4.3-6.6-8.9-8.7-14.1c-1.8-4.6-2.8-9.4-2.6-14.3
			c0.2-4.8,1.4-9.3,3.2-13.6c3.4-7.9,8.8-13.9,16.4-18.1c5.2-2.9,10.8-4.9,16.7-5.7c2.5-0.4,5.1-0.5,7.6-0.5c22.3,0,44.7,0,67,0
			c0.2,0,0.4,0,0.7,0c0.3,0,0.5,0.1,0.5,0.5c0,0.2,0,0.4,0,0.7c0.1,13.3,0.1,26.6,0.2,39.9c0,1.5,0,1.5-1.5,1.5
			c-17.9,0-35.7,0-53.6,0C529.3,526.5,528.9,526.5,528.4,526.5z M372.5,562c0.1,0,0.2,0,0.2-0.1c1,1.6,2,3.3,2.9,4.9
			c3.5,6.1,7.8,11.7,12.6,16.9c5,5.4,10.5,10.2,16.9,13.9c6.4,3.7,13.1,5.6,20.5,5.5c9.5-0.1,19-0.1,28.4,0c18.4,0,36.9-0.1,55.3,0
			c4.8,0,9.5-0.4,14.1-1.6c3.8-1,7.4-2.5,10.6-4.9c6.4-5,10.3-11.5,12.4-19.2c1.6-5.7,1.3-11.2-0.8-16.7c-1.1-2.7-2.3-5.4-3.7-7.9
			c-4.8-8.5-10.8-16-17.7-22.8c-0.4-0.4-0.8-0.7-1.3-1.1c-0.7-0.6-1.4-1.3-1.9-2.1c-1.1-1.9-0.3-4,1.7-4.8c0.8-0.3,1.7-0.4,2.6-0.4
			c5.7,0,11.5,0,17.2,0c12,0,23.9,0,35.9,0c1.1,0,1.1,0,1.1-1c0-10-0.1-20.1-0.1-30.1c0-1.4,0.2-1.2-1.3-1.2c-13,0-25.9,0-38.9,0
			c-8,0-15.9,0-23.9,0c-7.3,0-14.2,1.9-20.6,5.4c-10.4,5.7-15.7,14.7-17.2,26.2c-0.6,4.6,0.4,9.1,2.1,13.5c1.9,5,4.9,9.3,8.3,13.3
			c3.4,4.1,7.1,7.8,11,11.5c0.8,0.8,1.5,1.6,2.1,2.5c1.6,2.4,0.7,4.9-2,5.7c-1.1,0.4-2.2,0.4-3.4,0.4c-6.6,0.1-13.2,0.1-19.8,0.2
			c-11.4,0.1-22.7,0.2-34.1,0.2c-2.6,0-5.1-0.2-7.6-0.9c-2.6-0.7-5-1.7-6.9-3.7c-1.5-1.6-2.4-3.5-2.2-5.7c0.1-0.8,0.3-1.2,1-1.5
			c2.2-1.1,4.4-2.1,6.5-3.3c6.3-3.6,10.4-8.8,12.3-15.9c1.9-7,2.1-14.1,0.6-21.1c-2.2-10.3-7.9-17.9-17.4-22.5
			c-5.1-2.5-10.5-3.8-16.2-4c-4.4-0.2-8.7-0.2-13.1-0.2c-22.3-0.1-44.5-0.2-66.8-0.3c-1.4,0-1.2-0.2-1.2,1.2c0,37.1,0,74.2,0,111.3
			c0,0.3,0,0.5,0,0.8c0,0.3,0.1,0.5,0.4,0.5c0.2,0,0.4,0,0.7,0c13.1,0,26.2,0,39.2,0c1.3,0,1.2,0.1,1.2-1.2c0-10.1,0-20.3,0-30.4
			C372.5,568.2,372.5,565.1,372.5,562z"/>
		<path class="st0" d="M113.4,430.2c-1.6-1.6-2.9-2.9-4.3-4.3c-3.6-3.6-7-7.4-10-11.6c-3.2-4.6-5.8-9.5-7.2-14.9
			c-0.9-3.7-1.5-7.5-1-11.3c1.7-12.9,7.6-23.1,19.1-29.8c4.1-2.4,8.4-4.5,13.1-5.7c4.1-1.1,8.3-1.5,12.5-1.5c15,0,30.1,0,45.1,0
			c37,0,74,0,111,0c1.5,0,1.5,0,1.5,1.5c0,13.5,0,27,0,40.5c0,0.4,0.1,0.8-0.1,1.3c-1.4,0-2.8,0-4.2,0c-10.9,0.1-21.7,0.1-32.6,0.2
			c-4.3,0-8.7,0.1-13,0.1c-0.9,0-0.9,0-0.9,0.9c0,11.4,0.1,22.8,0.1,34.2c0,11,0.1,21.9,0.1,32.9c0,4,0,7.9,0,11.9
			c0,0.1,0,0.3,0,0.4c0,0.4-0.1,0.7-0.6,0.6c-0.2,0-0.4,0-0.7,0c-14.1,0-28.2,0-42.3,0c-1.4,0-1.2,0.2-1.2-1.2c0-26.2,0-52.4,0-78.6
			c0-1.7,0.2-1.5-1.5-1.5c-16.1,0-32.2,0-48.2,0c-0.4,0-0.8,0-1.3,0c0.2,0.5,0.6,0.7,0.9,0.9c6.9,5.8,12.8,12.4,17.3,20.1
			c3.2,5.4,5.5,11.2,6.5,17.5c1,6.5,0.8,12.9-1.4,19.2c-1.5,4.2-4,7.7-7.2,10.6c-4.1,3.8-8.6,7.2-13.7,9.5
			c-4.2,1.9-8.6,2.9-13.1,3.5c-4.8,0.6-9.5,0.4-14.3,0.4c-19.3-0.1-38.7-0.2-58-0.2c-15.2-0.1-30.4-0.1-45.7-0.2c-0.2,0-0.4,0-0.6,0
			c-0.3,0-0.5-0.1-0.5-0.5c0-0.3,0-0.6,0-0.9c0-11.7,0.1-23.4,0.1-35.1c0-2.7,0-5.3,0-8c0-1,0-1,1-1c7,0,14.1,0,21.1,0
			c7,0,14,0,21,0c17.2,0,34.4,0,51.7,0C112.4,430.2,112.8,430.2,113.4,430.2z M209.8,356.2c-24.7,0-49.3,0-74,0
			c-3.5,0-6.9,0.3-10.3,1c-4.6,1-8.7,3-12.8,5.3c-7.2,4-12.1,10-14.8,17.7c-1.2,3.4-2,6.8-2,10.4c0,3.5,0.6,7,1.8,10.3
			c1.7,4.8,4.4,9,7.5,13c3.7,4.7,7.9,8.9,12.2,13c1.4,1.3,1.8,2.9,1.4,4.6c-0.2,1.1-0.8,2-1.7,2.8c-0.8,0.7-1.7,0.9-2.8,0.9
			c-10.4,0-20.9,0-31.3,0c-7.1,0-14.3,0-21.4,0c-12.8,0-25.6,0-38.3,0c-1,0-1,0-1,1c0,11.1-0.1,22.2-0.1,33.3c0,0.9,0,0.9,1,0.9
			c11.4,0.1,22.9,0.1,34.3,0.2c20.1,0.1,40.3,0.2,60.4,0.2c5.4,0,10.7,0.3,16.1-0.2c4.2-0.4,8.3-1.2,12.2-2.8
			c5.7-2.4,10.6-6.2,14.9-10.7c2.6-2.7,4.3-6,5.1-9.7c1.2-5.2,1.1-10.4,0.1-15.6c-1.2-5.7-3.5-11-6.7-15.9
			c-4.7-7.3-10.6-13.6-17.5-18.9c-0.9-0.7-1.9-1.4-2.5-2.5c-1.3-2.1-0.5-4.4,1.8-5.2c0.9-0.3,1.7-0.3,2.6-0.3c19.2,0,38.4,0,57.6,0
			c1.6,0,1.4-0.3,1.4,1.5c0,26.2,0,52.4,0,78.6c0,1.4-0.1,1.2,1.3,1.2c10.7,0,21.3,0,32,0c1.5,0,1.3,0.2,1.3-1.4
			c-0.1-14.4-0.1-28.8-0.2-43.2c0-11.1-0.1-22.2-0.1-33.3c0-0.8,0-1.6,0-2.4c0-0.4,0.2-0.6,0.6-0.6c0.2,0,0.4,0,0.6,0
			c12.8-0.1,25.6-0.1,38.3-0.2c3.4,0,6.8,0,10.2,0c1.1,0,1.1,0,1.1-1.1c0-0.1,0-0.2,0-0.3c0-10.1,0-20.2,0-30.3c0-1.3,0-1.3-1.4-1.3
			C261.2,356.2,235.5,356.2,209.8,356.2z"/>
		<path class="st0" d="M199.2,484c-0.7,2.4-1.3,4.6-2,6.9c-9.7,34-19.3,67.9-29,101.9c-1.4,4.8-2.7,9.5-4.1,14.3c-0.3,1-0.3,1-1.3,1
			c-12.8,0-25.6,0-38.4,0c-1.4,0-1.1,0.1-1.5-1c-4.2-12.2-8.3-24.4-12.5-36.6c-0.1-0.3-0.3-0.7-0.5-1.2c-0.2,0.6-0.3,0.9-0.4,1.2
			c-3.9,12.3-7.8,24.5-11.6,36.8c-0.5,1.5-0.2,1.2-1.6,1.2c-9-0.1-17.9-0.1-26.9-0.2c-4.3,0-8.7-0.1-13-0.1c-1,0-1,0-1.3-1
			c-2.9-9.4-5.8-18.9-8.7-28.3c-9.7-31.2-19.3-62.4-29-93.6c-0.1-0.3-0.2-0.7-0.3-1c0.3-0.3,0.6-0.2,0.9-0.2c16.4,0,32.7,0,49.1,0
			c1,0,1,0,1.3,0.9c2.8,8.4,5.7,16.9,8.5,25.3c0.1,0.4,0.2,0.9,0.5,1.3c0.2-0.3,0.3-0.6,0.4-0.9c2.6-8.5,5.2-16.9,7.7-25.4
			c0.1-0.2,0.2-0.5,0.2-0.7c0.1-0.4,0.3-0.6,0.8-0.6c0.2,0,0.4,0,0.7,0c15.4,0,30.7,0,46.1,0c0.1,0,0.2,0,0.3,0c0.9,0,0.9,0,1.2,0.9
			c1.3,3.9,2.5,7.8,3.8,11.7c1.6,4.8,3.1,9.6,4.7,14.3c0.1,0.3,0.2,0.6,0.3,0.9c0.4-0.3,0.4-0.7,0.5-1.1c2.6-8.5,5.2-17,7.9-25.4
			c0.5-1.5,0.1-1.3,1.8-1.3c14.7,0,29.3,0,44,0C198.3,484,198.7,484,199.2,484z M110,553c0.1,0.4,0.2,0.7,0.4,1
			c5.4,16,10.9,32,16.3,48c0.3,0.9,0.3,0.9,1.3,0.9c10.4,0,20.7,0,31.1,0c1,0,1,0,1.3-0.9c1.9-6.5,3.7-13.1,5.6-19.6
			c8.8-30.7,17.5-61.5,26.3-92.2c0.1-0.3,0.3-0.7,0.1-1.1c-0.2,0-0.4,0-0.7,0c-11.5,0-23,0-34.4,0c-0.1,0-0.3,0-0.4,0
			c-0.4,0-0.6,0.1-0.6,0.5c-0.1,0.3-0.2,0.6-0.3,0.9c-3.9,12.5-7.7,24.9-11.6,37.4c-0.1,0.3-0.2,0.6-0.3,0.9
			c-0.4-0.5-0.4-0.9-0.5-1.2c-4.1-12.5-8.1-25-12.2-37.5c-0.3-0.9-0.3-0.9-1.3-0.9c-0.1,0-0.1,0-0.2,0c-12.9,0-25.9,0-38.8,0
			c-0.2,0-0.4,0-0.6,0c-0.4,0-0.7,0.1-0.8,0.6c0,0.3-0.1,0.5-0.2,0.7c-3.8,12.3-7.5,24.7-11.3,37c-0.1,0.3-0.1,0.6-0.4,0.9
			c-0.1-0.3-0.2-0.5-0.3-0.8c-3.4-10.1-6.8-20.2-10.2-30.3c-0.8-2.5-1.7-5-2.5-7.5c-0.2-0.5-0.4-0.8-0.9-0.7c-0.1,0-0.3,0-0.4,0
			c-12.7,0-25.4,0-38.1,0c-0.4,0-0.7-0.1-1.1,0.1c0.1,0.3,0.2,0.7,0.3,1.1c10.1,32.7,20.2,65.3,30.4,98c1.4,4.6,2.8,9.2,4.3,13.8
			c0.3,0.9,0.3,0.9,1.2,0.9c1.2,0,2.4,0,3.6,0c9.7,0.1,19.5,0.2,29.2,0.2c0.9,0,0.9,0,1.1-0.8c0-0.1,0.1-0.3,0.1-0.4
			c5.1-16,10.1-32,15.2-48C109.6,553.7,109.5,553.3,110,553z"/>
		<path class="st0" d="M323.3,608.3c-0.4,0-0.8,0-1.2,0c-14.7,0-29.5,0-44.2,0c-0.1,0-0.1,0-0.2,0c-1,0-1,0-1.3-0.9
			c-1-2.9-2.1-5.8-3.1-8.7c-1-2.8-2-5.6-3-8.4c-0.5-1.3-0.3-1.1-1.5-1.1c-4.1,0-8.2,0-12.3,0c-6.8,0-13.6,0-20.4,0
			c-1.5,0-1.2-0.2-1.7,1.1c-2.2,5.7-4.5,11.4-6.7,17.2c-0.3,0.9-0.3,0.9-1.3,0.9c-15.1,0-30.2,0-45.2,0c-0.3,0-0.5,0-0.8,0
			c-0.2-0.5,0.1-0.8,0.2-1.2c11.6-39.2,23.1-78.5,34.7-117.7c0.5-1.6,1-3.1,1.4-4.7c0.1-0.5,0.4-0.7,0.8-0.6c0.2,0,0.4,0,0.7,0
			c21.8,0,43.6,0,65.3,0c0.1,0,0.2,0,0.3,0c1.2,0,1,0,1.3,1c2.7,8.6,5.4,17.3,8.1,26c9.9,31.9,19.8,63.8,29.7,95.7
			C323,607.2,323.3,607.6,323.3,608.3z M187.2,603.2c0.2,0,0.4,0,0.6,0c11.7,0,23.5,0,35.2,0c0.7,0,0.9-0.3,1.2-0.9
			c2.2-5.7,4.4-11.3,6.6-16.9c0.1-0.3,0.3-0.6,0.4-0.9c0.1-0.3,0.3-0.4,0.6-0.4c0.3,0,0.5,0,0.8,0c13.3,0,26.6,0.1,39.9,0.1
			c1.1,0,1.1,0,1.5,1.1c2,5.6,4,11.3,6,16.9c0.3,1,0.3,1,1.4,1c11.4,0,22.7,0,34.1,0c0.3,0,0.7,0.1,0.9-0.1c0.1-0.5-0.2-0.9-0.3-1.3
			c-4.5-14.4-9-28.9-13.5-43.3c-7.1-22.7-14.1-45.5-21.2-68.2c-0.3-1-0.3-1-1.3-1c-19.5,0-39,0-58.5,0c-1,0-1,0-1.3,1
			c-1.3,4.5-2.6,8.9-4,13.4c-9.7,32.8-19.4,65.6-29,98.4C187.3,602.3,187.1,602.7,187.2,603.2z"/>
		<path class="st1" d="M463.9,428.8c0,0.4,0,0.7,0,1.1c0,13.1,0,26.3,0,39.4c0,1.4,0.2,1.2-1.2,1.2c-13,0-26,0-39,0
			c-1.4,0-1.3,0.2-1.3-1.2c0-37.2,0-74.3,0-111.5c0-0.1,0-0.2,0-0.3c0-0.8,0-0.8,0.9-0.8c5.9,0,11.7-0.1,17.6-0.1
			c19.4-0.1,38.7-0.2,58.1-0.3c5.5,0,10.9,0.5,16.2,2.3c7.8,2.6,14,7.2,18.2,14.4c2.5,4.4,3.9,9.1,4.4,14.1
			c0.5,5.6,0.3,11.2-1.2,16.7c-1.9,7.1-5.9,12.5-12.4,16.1c-2.1,1.2-4.4,2.2-6.5,3.3c-0.7,0.3-1,0.7-1,1.5c0,0.9-0.1,1.8,0,2.7
			c0.4,2.5,1.8,4.2,4,5.4c1.8,1,3.7,1.5,5.7,1.8c2.3,0.4,4.6,0.5,6.9,0.5c15,0,30,0,45,0c1.5,0,1.3-0.2,1.3,1.3c0,11,0,22,0,33
			c0,0.2,0,0.4,0,0.6c0.1,0.6-0.2,0.8-0.8,0.7c-0.3,0-0.5,0-0.8,0c-20.2,0-40.4-0.1-60.6,0c-6.6,0-12.7-1.6-18.4-4.6
			c-5.9-3.1-11.1-7.2-15.8-11.9c-6.1-6-11.4-12.7-15.8-20.1c-1-1.7-2.1-3.5-3.2-5.2C464.1,428.7,464,428.7,463.9,428.8z
			 M463.9,383.9c0,0.2,0,0.3,0,0.5c0,6.1,0,12.2,0,18.3c0,0.9,0,0.9,0.9,0.9c8.4,0,16.9,0,25.3,0c2.7,0,5.2-0.7,7.5-2.1
			c2.7-1.6,4.2-3.9,4.4-7.1c0.2-4.3-1.6-8-5.8-9.7c-1.7-0.7-3.5-1-5.3-1c-8.7,0-17.5,0-26.2,0C464.5,383.7,464.2,383.7,463.9,383.9z
			"/>
		<path class="st1" d="M408.6,470.5c-0.4,0.1-0.7,0.1-1.1,0.1c-11.3,0-22.5,0-33.8,0c-0.1,0-0.3,0-0.4,0c-0.5,0.1-0.8-0.2-0.9-0.7
			c-0.8-2.3-1.6-4.6-2.4-6.9c-1.3-3.6-2.5-7.2-3.8-10.8c-0.4-1.1-0.2-1-1.4-1c-8.1,0-16.1,0-24.2,0c-5.3,0-10.6,0-15.9,0
			c-1,0-1,0-1.4,0.9c-2.3,5.8-4.6,11.6-7,17.4c-0.5,1.2-0.2,1-1.5,1c-11.5,0-23,0-34.4,0c-0.4,0-0.7,0.1-1.1-0.1
			c-0.1-0.5,0.1-0.9,0.2-1.3c6.7-22.6,13.4-45.2,20.1-67.7c4.3-14.6,8.6-29.1,13-43.7c0.1-0.2,0.2-0.5,0.2-0.7
			c0.1-0.6,0.4-0.8,1-0.7c0.3,0,0.5,0,0.8,0c19.1,0,38.3,0,57.4,0c0.1,0,0.3,0,0.4,0c1,0,1,0,1.3,0.9c5.5,17.8,11,35.6,16.5,53.4
			c6.1,19.6,12.2,39.2,18.2,58.8C408.5,469.7,408.7,470.1,408.6,470.5z M344.2,382.3c-0.1,0-0.1,0-0.2,0c-4.3,14.1-8.7,28.3-13,42.6
			c8.9,0,17.7,0.1,26.6,0.1C353,410.6,348.6,396.5,344.2,382.3z"/>
		<path class="st1" d="M372.5,562c0,3.1,0,6.2,0,9.3c0,10.1,0,20.3,0,30.4c0,1.3,0.1,1.2-1.2,1.2c-13.1,0-26.2,0-39.2,0
			c-0.2,0-0.4,0-0.7,0c-0.3,0-0.5-0.2-0.4-0.5c0-0.3,0-0.5,0-0.8c0-37.1,0-74.2,0-111.3c0-1.4-0.2-1.3,1.2-1.2
			c22.3,0.1,44.5,0.2,66.8,0.3c4.4,0,8.7,0,13.1,0.2c5.6,0.2,11.1,1.5,16.2,4c9.5,4.7,15.2,12.3,17.4,22.5
			c1.5,7.1,1.3,14.1-0.6,21.1c-1.9,7-6,12.3-12.3,15.9c-2.1,1.2-4.4,2.2-6.5,3.3c-0.7,0.3-0.9,0.8-1,1.5c-0.2,2.3,0.6,4.1,2.2,5.7
			c1.9,2,4.3,3,6.9,3.7c2.5,0.7,5,0.9,7.6,0.9c11.4-0.1,22.7-0.1,34.1-0.2c6.6,0,13.2-0.1,19.8-0.2c1.2,0,2.3-0.1,3.4-0.4
			c2.7-0.9,3.6-3.3,2-5.7c-0.6-0.9-1.3-1.8-2.1-2.5c-3.8-3.7-7.6-7.4-11-11.5c-3.4-4.1-6.3-8.4-8.3-13.3c-1.7-4.3-2.7-8.8-2.1-13.5
			c1.4-11.5,6.8-20.5,17.2-26.2c6.4-3.5,13.3-5.4,20.6-5.4c8,0,15.9,0,23.9,0c13,0,25.9,0,38.9,0c1.4,0,1.2-0.2,1.3,1.2
			c0.1,10,0.1,20.1,0.1,30.1c0,1,0,1-1.1,1c-12,0-23.9,0-35.9,0c-5.7,0-11.5,0-17.2,0c-0.9,0-1.8,0.1-2.6,0.4
			c-2,0.8-2.8,2.9-1.7,4.8c0.5,0.9,1.2,1.5,1.9,2.1c0.4,0.4,0.9,0.7,1.3,1.1c6.9,6.9,12.9,14.4,17.7,22.8c1.4,2.5,2.7,5.2,3.7,7.9
			c2.1,5.5,2.4,11,0.8,16.7c-2.2,7.7-6.1,14.2-12.4,19.2c-3.1,2.5-6.8,3.9-10.6,4.9c-4.6,1.2-9.3,1.6-14.1,1.6
			c-18.4-0.1-36.9,0-55.3,0c-9.5,0-19-0.1-28.4,0c-7.4,0.1-14.2-1.8-20.5-5.5c-6.4-3.7-11.9-8.5-16.9-13.9
			c-4.8-5.2-9-10.8-12.6-16.9c-1-1.7-2-3.3-2.9-4.9C372.7,562,372.6,562,372.5,562z M387.1,516.2
			C387.1,516.2,387.1,516.2,387.1,516.2c-4.6,0-9.1,0-13.7,0c-1,0-1-0.1-1,1c0,6,0,12,0,18c0,0.9,0,0.9,0.9,0.9c8.4,0,16.9,0,25.3,0
			c2.3,0,4.6-0.6,6.6-1.6c3.7-1.8,5.5-4.8,5.2-9c-0.3-4.1-2.3-6.9-6.1-8.4c-1.6-0.6-3.3-0.8-5-0.8
			C395.3,516.3,391.2,516.2,387.1,516.2z"/>
		<path class="st1" d="M209.8,356.2c25.7,0,51.3,0,77,0c1.4,0,1.4,0,1.4,1.3c0,10.1,0,20.2,0,30.3c0,0.1,0,0.2,0,0.3
			c0,1.1,0,1.1-1.1,1.1c-3.4,0-6.8,0-10.2,0c-12.8,0.1-25.6,0.1-38.3,0.2c-0.2,0-0.4,0-0.6,0c-0.4,0-0.6,0.1-0.6,0.6
			c0,0.8,0,1.6,0,2.4c0,11.1,0.1,22.2,0.1,33.3c0.1,14.4,0.1,28.8,0.2,43.2c0,1.6,0.2,1.3-1.3,1.4c-10.7,0-21.3,0-32,0
			c-1.4,0-1.3,0.2-1.3-1.2c0-26.2,0-52.4,0-78.6c0-1.7,0.2-1.5-1.4-1.5c-19.2,0-38.4,0-57.6,0c-0.9,0-1.8,0-2.6,0.3
			c-2.3,0.8-3.1,3.1-1.8,5.2c0.7,1,1.6,1.7,2.5,2.5c6.9,5.3,12.8,11.5,17.5,18.9c3.1,4.9,5.5,10.1,6.7,15.9
			c1.1,5.2,1.2,10.4-0.1,15.6c-0.9,3.7-2.5,7-5.1,9.7c-4.3,4.5-9.1,8.2-14.9,10.7c-3.9,1.6-8,2.4-12.2,2.8
			c-5.4,0.5-10.7,0.2-16.1,0.2c-20.1,0-40.3-0.1-60.4-0.2c-11.4,0-22.9-0.1-34.3-0.2c-1,0-1,0-1-0.9c0-11.1,0.1-22.2,0.1-33.3
			c0-1,0-1,1-1c12.8,0,25.6,0,38.3,0c7.1,0,14.3,0,21.4,0c10.4,0,20.9,0,31.3,0c1.1,0,2-0.2,2.8-0.9c0.9-0.8,1.5-1.7,1.7-2.8
			c0.4-1.8,0-3.3-1.4-4.6c-4.3-4.1-8.5-8.3-12.2-13c-3.1-4-5.8-8.2-7.5-13c-1.2-3.3-1.8-6.8-1.8-10.3c0-3.6,0.8-7,2-10.4
			c2.8-7.7,7.6-13.7,14.8-17.7c4-2.3,8.2-4.3,12.8-5.3c3.4-0.8,6.8-1,10.3-1C160.5,356.2,185.1,356.2,209.8,356.2z"/>
		<path class="st1" d="M110,553c-0.4,0.2-0.4,0.7-0.5,1c-5.1,16-10.1,32-15.2,48c0,0.1-0.1,0.3-0.1,0.4c-0.3,0.8-0.3,0.8-1.1,0.8
			c-9.7-0.1-19.5-0.2-29.2-0.2c-1.2,0-2.4,0-3.6,0c-0.9,0-0.9,0-1.2-0.9c-1.4-4.6-2.8-9.2-4.3-13.8c-10.1-32.7-20.2-65.3-30.4-98
			c-0.1-0.3-0.2-0.7-0.3-1.1c0.4-0.2,0.8-0.1,1.1-0.1c12.7,0,25.4,0,38.1,0c0.1,0,0.3,0,0.4,0c0.6-0.1,0.8,0.2,0.9,0.7
			c0.8,2.5,1.7,5,2.5,7.5c3.4,10.1,6.8,20.2,10.2,30.3c0.1,0.2,0.2,0.5,0.3,0.8c0.3-0.3,0.3-0.6,0.4-0.9c3.8-12.3,7.5-24.7,11.3-37
			c0.1-0.2,0.2-0.5,0.2-0.7c0.1-0.5,0.4-0.6,0.8-0.6c0.2,0,0.4,0,0.6,0c12.9,0,25.9,0,38.8,0c0.1,0,0.1,0,0.2,0c1,0,1,0,1.3,0.9
			c4.1,12.5,8.1,25,12.2,37.5c0.1,0.4,0.2,0.8,0.5,1.2c0.1-0.4,0.2-0.6,0.3-0.9c3.9-12.5,7.7-24.9,11.6-37.4
			c0.1-0.3,0.2-0.6,0.3-0.9c0.1-0.3,0.3-0.5,0.6-0.5c0.1,0,0.3,0,0.4,0c11.5,0,23,0,34.4,0c0.2,0,0.4,0,0.7,0c0.2,0.4,0,0.8-0.1,1.1
			c-8.8,30.7-17.5,61.5-26.3,92.2c-1.9,6.5-3.7,13.1-5.6,19.6c-0.3,0.9-0.3,0.9-1.3,0.9c-10.4,0-20.7,0-31.1,0c-1,0-1,0-1.3-0.9
			c-5.5-16-10.9-32-16.3-48C110.2,553.7,110.1,553.4,110,553z"/>
		<path class="st1" d="M187.2,603.2c0-0.5,0.1-0.8,0.2-1.2c9.7-32.8,19.4-65.6,29-98.4c1.3-4.5,2.6-8.9,4-13.4c0.3-1,0.3-1,1.3-1
			c19.5,0,39,0,58.5,0c1,0,1,0,1.3,1c7.1,22.7,14.1,45.5,21.2,68.2c4.5,14.4,9,28.9,13.5,43.3c0.1,0.4,0.4,0.8,0.3,1.3
			c-0.3,0.2-0.6,0.1-0.9,0.1c-11.4,0-22.7,0-34.1,0c-1,0-1,0-1.4-1c-2-5.6-4-11.3-6-16.9c-0.4-1.1-0.4-1.1-1.5-1.1
			c-13.3,0-26.6-0.1-39.9-0.1c-0.3,0-0.5,0-0.8,0c-0.3,0-0.5,0.1-0.6,0.4c-0.1,0.3-0.2,0.6-0.4,0.9c-2.2,5.6-4.4,11.3-6.6,16.9
			c-0.2,0.6-0.4,0.9-1.2,0.9c-11.7,0-23.5,0-35.2,0C187.6,603.2,187.4,603.2,187.2,603.2z M265.1,557.9
			c-4.5-14.3-8.9-28.5-13.4-42.8c-0.2,0.4-0.3,0.6-0.3,0.8c-4.2,13.9-8.5,27.8-12.7,41.8c0,0,0,0.1,0,0.1c0,0,0,0,0.2,0.2
			C247.5,557.9,256.3,557.9,265.1,557.9z"/>
		<path class="st0" d="M463.9,383.9c0.3-0.2,0.5-0.1,0.8-0.1c8.7,0,17.5,0,26.2,0c1.8,0,3.6,0.3,5.3,1c4.1,1.8,6,5.4,5.8,9.7
			c-0.2,3.1-1.7,5.5-4.4,7.1c-2.3,1.4-4.8,2.1-7.5,2.1c-8.4,0-16.9,0-25.3,0c-0.9,0-0.9,0-0.9-0.9c0-6.1,0-12.2,0-18.3
			C463.9,384.2,463.9,384,463.9,383.9z M480.8,388.8C480.8,388.8,480.8,388.8,480.8,388.8c-3.7,0-7.3,0-11,0c-0.8,0-0.8,0-0.8,0.8
			c0,2.7,0,5.4,0,8.1c0,0.8,0,0.8,0.8,0.8c6.8,0,13.6,0,20.4,0c1.6,0,3.2-0.5,4.7-1.3c1.4-0.8,2.2-2,2.1-3.6
			c-0.1-1.8-0.7-3.2-2.4-4.1c-1.1-0.5-2.3-0.7-3.6-0.7C487.6,388.8,484.2,388.8,480.8,388.8z"/>
		<path class="st0" d="M344.2,382.3c4.4,14.2,8.8,28.3,13.3,42.7c-8.9,0-17.7,0-26.6-0.1c4.4-14.3,8.7-28.4,13-42.6
			C344,382.3,344.1,382.3,344.2,382.3z M350.4,419.8c-0.3-1.7-6-19.6-6.4-20.2c-2.1,6.7-4.1,13.4-6.2,20.2
			C342.1,419.8,346.2,419.8,350.4,419.8z"/>
		<path class="st0" d="M387.1,516.2c4.1,0,8.2,0,12.3,0c1.7,0,3.4,0.2,5,0.8c3.9,1.5,5.9,4.4,6.1,8.4c0.3,4.2-1.6,7.1-5.2,9
			c-2.1,1-4.3,1.6-6.6,1.6c-8.4,0-16.9,0-25.3,0c-0.9,0-0.9,0-0.9-0.9c0-6,0-12,0-18c0-1,0-1,1-1C378,516.2,382.5,516.2,387.1,516.2
			C387.1,516.2,387.1,516.2,387.1,516.2z M389.4,521.3C389.4,521.3,389.4,521.3,389.4,521.3c-3.6,0-7.3,0-10.9,0
			c-0.9,0-0.9,0-0.9,0.9c0,2.6,0,5.3,0,7.9c0,0.9,0,0.9,0.9,0.9c6.6,0,13.3,0,19.9,0c1.8,0,3.5-0.4,5.1-1.3c1.5-0.8,2.1-2.1,2-3.8
			c-0.1-1.7-0.7-3.1-2.3-3.9c-1.1-0.5-2.3-0.7-3.6-0.7C396.2,521.3,392.8,521.3,389.4,521.3z"/>
		<path class="st0" d="M265.1,557.9c-8.9,0-17.6,0-26.2,0c-0.1-0.1-0.1-0.1-0.2-0.2c0,0,0-0.1,0-0.1c4.2-13.9,8.5-27.8,12.7-41.8
			c0.1-0.2,0.2-0.4,0.3-0.8C256.3,529.4,260.7,543.6,265.1,557.9z M258.2,552.8c-2.1-6.8-4.2-13.6-6.5-20.3
			c-2.1,6.7-4.1,13.4-6.2,20.3C249.8,552.8,253.9,552.8,258.2,552.8z"/>
		<path class="st1" d="M480.8,388.8c3.4,0,6.8,0,10.2,0c1.2,0,2.4,0.2,3.6,0.7c1.7,0.8,2.3,2.3,2.4,4.1c0.1,1.7-0.7,2.8-2.1,3.6
			c-1.5,0.8-3,1.2-4.7,1.3c-6.8,0-13.6,0-20.4,0c-0.7,0-0.8,0-0.8-0.8c0-2.7,0-5.4,0-8.1c0-0.8,0-0.8,0.8-0.8
			C473.5,388.8,477.1,388.8,480.8,388.8C480.8,388.8,480.8,388.8,480.8,388.8z"/>
		<path class="st1" d="M350.4,419.8c-4.2,0-8.3,0-12.6,0c2.1-6.8,4.1-13.5,6.2-20.2C344.5,400.2,350.2,418.1,350.4,419.8z"/>
		<path class="st1" d="M389.4,521.3c3.4,0,6.8,0,10.2,0c1.2,0,2.4,0.2,3.6,0.7c1.6,0.8,2.2,2.2,2.3,3.9c0.1,1.7-0.6,2.9-2,3.8
			c-1.6,0.9-3.3,1.3-5.1,1.3c-6.6,0-13.3,0-19.9,0c-0.9,0-0.9,0-0.9-0.9c0-2.6,0-5.3,0-7.9c0-0.9,0-0.9,0.9-0.9
			C382.1,521.3,385.7,521.3,389.4,521.3C389.4,521.3,389.4,521.3,389.4,521.3z"/>
		<path class="st1" d="M258.2,552.8c-4.3,0-8.4,0-12.7,0c2.1-6.8,4.1-13.6,6.2-20.3C254,539.2,256.1,545.9,258.2,552.8z"/>
	</g>
</g>
</svg>
