<?xml version="1.0" encoding="utf-8"?>
<!-- Generator: Adobe Illustrator 21.0.0, SVG Export Plug-In . SVG Version: 6.00 Build 0)  -->
<svg version="1.1" id="Calque_1" xmlns="http://www.w3.org/2000/svg" xmlns:xlink="http://www.w3.org/1999/xlink" x="0px" y="0px"
	 viewBox="0 0 283.5 283.5" style="enable-background:new 0 0 283.5 283.5;" xml:space="preserve">
<style type="text/css">
	.st0{fill:#FFFFFF;}
</style>
<g>
	<path class="st0" d="M141.7,203.3c-33.9,0-61.5-27.6-61.5-61.5c0-33.9,27.6-61.5,61.5-61.5s61.5,27.6,61.5,61.5
		C203.3,175.7,175.7,203.3,141.7,203.3z M141.7,83.2c-32.3,0-58.5,26.3-58.5,58.5c0,32.3,26.3,58.5,58.5,58.5s58.5-26.3,58.5-58.5
		C200.3,109.5,174,83.2,141.7,83.2z"/>
	<path class="st0" d="M141.7,114.6c-14.9,0-27,12.1-27,27c0,11.1,6.6,20.6,16.1,24.7c-0.1-1.9,0-4.2,0.5-6.2
		c0.5-2.2,3.5-14.7,3.5-14.7s-0.9-1.7-0.9-4.3c0-4,2.3-7,5.2-7c2.5,0,3.6,1.8,3.6,4.1c0,2.5-1.6,6.2-2.4,9.6
		c-0.7,2.9,1.4,5.2,4.3,5.2c5.1,0,8.5-6.6,8.5-14.4c0-5.9-4-10.3-11.2-10.3c-8.2,0-13.3,6.1-13.3,12.9c0,2.4,0.7,4,1.8,5.3
		c0.5,0.6,0.6,0.8,0.4,1.5c-0.1,0.5-0.4,1.7-0.6,2.2c-0.2,0.7-0.7,0.9-1.3,0.7c-3.8-1.5-5.5-5.7-5.5-10.3c0-7.7,6.5-16.9,19.3-16.9
		c10.3,0,17.1,7.5,17.1,15.5c0,10.6-5.9,18.5-14.5,18.5c-2.9,0-5.6-1.6-6.6-3.4c0,0-1.6,6.2-1.9,7.4c-0.6,2.1-1.7,4.2-2.7,5.8
		c2.4,0.7,5,1.1,7.6,1.1c14.9,0,27-12.1,27-27C168.7,126.7,156.6,114.6,141.7,114.6"/>
</g>
</svg>