<svg id="Calque_1" data-name="Calque 1" xmlns="http://www.w3.org/2000/svg" viewBox="0 0 283.46 283.46"><defs><style>.cls-1{fill:#fffffe;}.cls-2{fill:#fdf185;}.cls-3{fill:#0d425f;}.cls-4{fill:#35b8cf;}.cls-5{fill:#0f585c;}</style></defs><title>Plan de travail 1</title><path class="cls-1" d="M219.46,66.17C184.45,36.29,143.78,29.9,101,46.62,38,71.2,17.76,137.72,30,181.23a30.77,30.77,0,0,1-4.76,2.16c-6.63,1.78-8.68,5.08-5.94,12,3,7.54,4.6,15.61,6.85,23.44,2.2,7.67,2.63,15.9,7.29,22.78,2.07,14.17,2.44,14.28,16.46,13.17C67.67,253.4,85.45,252,103,248.65c3.74-.73,8.16,2.27,11.25-2l7.77-.19c3.38.75,6.78,1.31,10.23.42l7.13,1.42,13.74-.11c.86,1.46,2,2.33,3.82,1.9l10.37.62c3,3.17,6.06-1.28,9.09,0l-.23-3.36C190,244.9,190,244.91,184,232.17c-1-2.1,1.32-2.91,2-4.35,4.53-1,9.14-1.81,13.56-3.21,7-2.23,12-1.4,12.78,7.19.52,5.6,3.61,5.77,8.45,4.87,27.29-5.11,45.88-27.72,37.63-55.12C267.55,135.62,254.88,96.41,219.46,66.17Z"/><path class="cls-2" d="M30,181.23c-12.22-43.51,8-110,71-134.62,42.79-16.71,83.47-10.33,118.47,19.56,35.43,30.24,48.09,69.45,38.93,115.38-3.37-4.74-6.6-9.6-10.15-14.2s-8-8.44-9.09-14.69c-1.17-7,4.84-9.8,8.36-14.43-14.16-1-21.42,7.78-17.85,20.93,1.76,6.47,4.7,12.6,4.93,19.49.59,17.46-14,27.13-30.36,20.92-5.45-2.08-2.77-6-4.29-8.87-1.64-3.06,2.14-3.17,3.83-4.13,11.76-6.67,16.69-16.76,15.19-30.05-.75-6.67-2.41-13.29-2.54-20-.47-23.36-14.47-42-36.58-48-22.83-6.14-45.43,3.32-57,23.74a38.26,38.26,0,0,1-4.65,6.29c-12.69,14.44-13.85,25.7-4.44,42.41.91,1.61,3.14,2.88,1.84,5.64a13.42,13.42,0,0,1-3.24.3C99.88,165.2,90.82,156.33,90,143.67c-.67-9.89.57-19.92-.05-29.82C88.94,98.49,75,90.81,62.08,98c14,5.77,18.35,13.43,13.59,25.3a139.58,139.58,0,0,1-8.83,17.13c-2.95,5.15-7,11-5.75,16.25,4.22,17.13-8.3,17.39-18.61,20.42C38.27,178.36,34.14,179.86,30,181.23Z"/><path class="cls-3" d="M30,181.23c4.16-1.38,8.29-2.88,12.49-4.11,10.31-3,22.83-3.29,18.61-20.42-1.3-5.28,2.8-11.1,5.75-16.25a139.58,139.58,0,0,0,8.83-17.13c4.77-11.87.44-19.54-13.59-25.3,12.89-7.21,26.87.47,27.83,15.83.62,9.9-.62,19.92.05,29.82.85,12.66,9.91,21.53,22.42,23.3a13.42,13.42,0,0,0,3.24-.3c1.3-2.75-.94-4-1.84-5.64-9.41-16.71-8.24-28,4.44-42.41a38.26,38.26,0,0,0,4.65-6.29c11.53-20.41,34.13-29.87,57-23.74,22.11,5.94,36.11,24.61,36.58,48,.13,6.67,1.79,13.29,2.54,20,1.5,13.29-3.43,23.39-15.19,30.05-1.69,1-5.46,1.06-3.83,4.13,1.52,2.84-1.17,6.79,4.29,8.87,16.32,6.21,31-3.46,30.36-20.92-.23-6.88-3.17-13-4.93-19.49-3.57-13.15,3.68-21.91,17.85-20.93-3.52,4.63-9.53,7.47-8.36,14.43,1,6.26,5.54,10.1,9.09,14.69s6.78,9.46,10.15,14.2c8.25,27.39-10.34,50-37.63,55.12-4.84.91-7.93.74-8.45-4.87-.8-8.59-5.75-9.42-12.78-7.19-4.42,1.4-9,2.16-13.56,3.21l-3.21-.48c3.2-10,7.75-19.44,12.64-28.7,2.18-4.12,2.07-6.49-2.63-8.8-10.43-5.15-20.71-10.65-30.73-16.57-6.21-3.67-8.9-1.68-11.81,4.2-6.43,13-11.24,26.87-20.15,38.58l-2.82-.92a11,11,0,0,0-7-3.2c-5-.49-8.36,2.06-10.74,6.09-1.94,3.29-2.38,6.85.72,9.57,2.7,2.37,4.76,7.63,9.88,3.46l1.56,1.88-7.5,12.66c-7.71-5.1-17-3.32-25.34-5.75-18.57-5.39-26.92-26-16.88-41.91,2.33-3.7,6.43-5.5,9.41-9-4-2.83-8-4.62-10.48-7.64-4.81-5.79-10-5.76-16.36-3.43-7.4,2.7-14.91,5.39-22.6,6.94-8.86,1.79-10.89,5.26-8.26,14.31,4.05,13.91,9.18,27.71,9.77,42.47-4.67-6.88-5.09-15.11-7.29-22.78-2.25-7.83-3.88-15.9-6.85-23.44-2.74-6.94-.69-10.24,5.94-12A30.79,30.79,0,0,0,30,181.23Zm153.34-49.07c.26-12.68-3.94-19.68-12.52-23-8.22-3.17-17.5-1.41-22.23,5.45-6.79,9.87-10.49,21-8.51,33.17,1.5,9.26,7.51,15.11,16.81,16.72,8.6,1.49,14.78-2.68,19.27-9.39C181.17,147.65,182.93,139,183.32,132.17Z"/><path class="cls-4" d="M33.43,241.63c-.59-14.76-5.72-28.56-9.77-42.47-2.63-9-.6-12.52,8.26-14.31,7.69-1.55,15.2-4.24,22.6-6.94,6.38-2.33,11.55-2.36,16.36,3.43,2.5,3,6.48,4.81,10.48,7.64-3,3.45-7.08,5.26-9.41,9-10,15.94-1.69,36.51,16.88,41.91,8.36,2.43,17.62.65,25.34,5.74a3.15,3.15,0,0,1,.07,1.07c-3.09,4.26-7.5,1.27-11.25,2-17.54,3.4-35.32,4.75-53.11,6.16C35.87,255.91,35.49,255.81,33.43,241.63Zm25.65-35.08c.28-6.62-5.13-19.44-8.28-19.63-4.07-.24-20.49,6.67-20.72,8.71-.42,3.86,6.49,19.4,8.72,19.58C43.19,215.58,59,208.84,59.08,206.56Zm1.21,11.35c-9.08.29-22.3,7-21,9.91,2.9,6.31.5,17.41,9.36,17.93,5.6.33,17,.39,17.65-9.29A27.72,27.72,0,0,0,60.28,217.91Z"/><path class="cls-4" d="M114.24,246.65a3.15,3.15,0,0,0-.07-1.07l7.5-12.65c4.34-4.86,6.38-10.87,8.41-16.88,8.91-11.71,13.72-25.58,20.15-38.58,2.91-5.88,5.59-7.87,11.81-4.2,10,5.91,20.3,11.42,30.73,16.57,4.7,2.32,4.81,4.69,2.63,8.8-4.89,9.25-9.44,18.69-12.64,28.7-2.62,6.52-8.48,12-6.62,20l.25,3.52.12-.11c-3.07-1.43-6.15,3.2-9.22,0,1.24-6.19-4.36-6.6-7.45-7-3.72-.47-3.48,3.45-2.92,6.36-1.8.42-3-.45-3.82-1.9-.62-2.91,4.68-6.37-.75-8.79-2.71-1.21-5.46-5.34-8.14-2.92-3.09,2.78-6.74,6.48-4.86,11.82l-7.13-1.42,6.31-11.5c1.9-3.45-.72-4.72-3-6-1.89-1.08-4.17-3.38-5.8,0-2.71,5.63-8.29,10-7.74,17.09ZM167.13,215c-1.49-3-4.75-3.79-7.3-5.43-2.82-1.81-3.57.71-4.46,2.32-2.41,4.35-4.62,8.82-6.93,13.23-1.57,3-.54,5.1,2.38,6.31,2.24.93,4.94,4.64,6.76,2C161.33,227.93,163.84,221.58,167.13,215Zm3.16,26.29c.63-.17,1.46-1.62,2.19-3.2,1.94-4.22,3.59-8.61,5.93-12.6,2.8-4.79-.6-6-3.66-7.78-3.82-2.24-5,.09-6.3,3.11-1.71,4-3.92,7.79-5.64,11.78S164.71,241.52,170.29,241.33Zm11.42-26.25c2.13-.15,2.71-1.87,3.41-3.44,1.88-4.23,3.5-8.59,5.69-12.66s.07-5.44-3.13-7.23c-4-2.22-5.65-.8-7.09,2.87-1.58,4-3.74,7.84-5.35,11.86C173.75,210.22,177.78,215.38,181.72,215.08Zm-2.33-25.62c-.84-3.12-4-3.59-6.29-5.05-2.44-1.56-3.69-.3-4.69,1.87-2.21,4.78-4.35,9.6-6.79,14.26-1.71,3.27.6,4.3,2.67,5.18s4.34,4,6.05,1.29C173.76,201.59,176.28,195.61,179.38,189.45Zm-13.75-6.37c-.22-4.12-3.28-4.54-5.33-5.9-2.23-1.48-3.82-.46-4.88,1.7-2.3,4.7-4.58,9.41-6.89,14.11-1.09,2.22-.71,4,1.67,5,2,.79,4.36,4.14,5.9,2C159.91,194.48,162.72,188.37,165.64,183.09Zm-12.73,24.23c-.59-3.46-3.63-3.8-5.61-5.28s-3.22-.23-4.09,1.43c-2.57,4.88-5.06,9.8-7.57,14.7-1.47,2.87.37,4.38,2.49,5.53,1.61.88,3.69,3.39,5.23.92C146.89,219,149.83,213,152.91,207.31Z"/><path class="cls-3" d="M122,246.47c-.56-7.1,5-11.45,7.74-17.09,1.63-3.4,3.91-1.09,5.8,0,2.28,1.3,4.9,2.57,3,6l-6.31,11.5C128.78,247.77,125.39,247.22,122,246.47Z"/><path class="cls-3" d="M176.14,247.32c-1.87-8,4-13.46,6.62-20l3.21.48c-.69,1.45-3,2.25-2,4.35C190,244.91,190,244.9,176.14,247.32Z"/><path class="cls-3" d="M139.36,248.31c-1.88-5.34,1.77-9,4.86-11.82,2.68-2.41,5.42,1.72,8.14,2.92,5.43,2.42.12,5.88.75,8.79Z"/><path class="cls-3" d="M156.92,250.1c-.56-2.92-.8-6.83,2.92-6.36,3.09.39,8.69.8,7.45,7Z"/><path class="cls-1" d="M183.32,132.17c-.39,6.87-2.16,15.48-7.17,23-4.49,6.71-10.67,10.88-19.27,9.39-9.3-1.62-15.31-7.46-16.81-16.72-2-12.21,1.72-23.3,8.51-33.17,4.73-6.87,14-8.63,22.23-5.45C179.38,112.48,183.58,119.49,183.32,132.17Zm-32.12,11.06c.1,3.65-.06,7.5,4.09,8.86s7.29-1,9.29-4.54a35.11,35.11,0,0,0,4.7-17.43c0-3.48-.91-6.52-4.54-7.56s-6.33.72-8.18,3.57A33.67,33.67,0,0,0,151.21,143.22Z"/><path class="cls-4" d="M120.11,231.06c-5.12,4.17-7.17-1.09-9.88-3.46-3.11-2.72-2.66-6.29-.72-9.57,2.38-4,5.79-6.59,10.74-6.09a11,11,0,0,1,7,3.2Z"/><path class="cls-3" d="M120.11,231.06l7.14-15.93,2.82.92c-2,6-4.07,12-8.41,16.88Z"/><path class="cls-3" d="M59.08,206.56c-.1,2.28-15.88,9-20.28,8.67-2.22-.18-9.14-15.72-8.72-19.58.22-2,16.65-9,20.72-8.71C53.95,187.11,59.36,199.94,59.08,206.56Z"/><path class="cls-3" d="M60.28,217.91a27.72,27.72,0,0,1,6,18.55c-.69,9.68-12.05,9.62-17.65,9.29-8.86-.52-6.46-11.62-9.36-17.93C38,224.94,51.21,218.2,60.28,217.91Z"/><path class="cls-3" d="M167.13,215c-3.29,6.54-5.81,12.89-9.55,18.4-1.81,2.67-4.51-1-6.76-2-2.92-1.21-3.95-3.3-2.38-6.31,2.31-4.41,4.51-8.88,6.93-13.23.89-1.61,1.64-4.13,4.46-2.32C162.38,211.25,165.64,212.05,167.13,215Z"/><path class="cls-3" d="M170.29,241.33c-5.58.19-9.17-4.76-7.47-8.7s3.93-7.78,5.64-11.78c1.29-3,2.48-5.34,6.3-3.11,3.06,1.79,6.46,3,3.66,7.78-2.34,4-4,8.38-5.93,12.6C171.76,239.71,170.93,241.16,170.29,241.33Z"/><path class="cls-3" d="M181.71,215.07c-3.94.3-8-4.85-6.47-8.58,1.61-4,3.77-7.83,5.35-11.86,1.44-3.68,3.11-5.1,7.09-2.87,3.19,1.78,5.33,3.13,3.13,7.23s-3.8,8.43-5.69,12.66C184.43,213.21,183.85,214.92,181.71,215.07Z"/><path class="cls-3" d="M179.38,189.45c-3.1,6.16-5.62,12.14-9,17.55-1.71,2.71-4.13-.47-6.05-1.29s-4.38-1.9-2.67-5.18c2.44-4.66,4.58-9.48,6.79-14.26,1-2.17,2.25-3.43,4.69-1.87C175.37,185.86,178.55,186.33,179.38,189.45Z"/><path class="cls-3" d="M165.64,183.09c-2.91,5.28-5.73,11.4-9.54,16.81-1.54,2.19-3.91-1.16-5.9-2-2.38-.95-2.76-2.73-1.67-5,2.31-4.7,4.59-9.41,6.89-14.11,1.06-2.16,2.65-3.18,4.88-1.7C162.35,178.55,165.41,179,165.64,183.09Z"/><path class="cls-3" d="M152.91,207.31c-3.08,5.67-6,11.67-9.55,17.3-1.55,2.47-3.63,0-5.23-.92-2.11-1.15-4-2.66-2.49-5.53,2.52-4.9,5-9.82,7.57-14.7.87-1.66,2.11-2.91,4.09-1.43S152.32,203.85,152.91,207.31Z"/><path class="cls-5" d="M151.21,143.22a33.67,33.67,0,0,1,5.36-17.11c1.85-2.85,4.68-4.57,8.18-3.57s4.54,4.08,4.54,7.56a35.11,35.11,0,0,1-4.7,17.43c-2,3.56-5,5.95-9.29,4.54S151.3,146.87,151.21,143.22Z"/></svg>