<?xml version="1.0" encoding="utf-8"?>
<!-- Generator: Adobe Illustrator 21.0.0, SVG Export Plug-In . SVG Version: 6.00 Build 0)  -->
<svg version="1.1" id="Calque_1" xmlns="http://www.w3.org/2000/svg" xmlns:xlink="http://www.w3.org/1999/xlink" x="0px" y="0px"
	 viewBox="0 0 283.5 283.5" style="enable-background:new 0 0 283.5 283.5;" xml:space="preserve">
<style type="text/css">
	.st0{fill:#FFFFFF;}
</style>
<g>
	<path class="st0" d="M141.8,203.3c-33.9,0-61.5-27.6-61.5-61.5c0-33.9,27.6-61.5,61.5-61.5c33.9,0,61.5,27.6,61.5,61.5
		C203.3,175.7,175.7,203.3,141.8,203.3z M141.8,83.2c-32.3,0-58.5,26.3-58.5,58.5c0,32.3,26.3,58.5,58.5,58.5
		c32.3,0,58.5-26.3,58.5-58.5C200.3,109.5,174.1,83.2,141.8,83.2z"/>
	<path class="st0" d="M152.9,123.5v10.3c-0.2,0.3-0.5,0.5-0.8,0.7c-0.3,0.2-0.6,0.3-0.8,0.3c-0.2,0-0.4-0.1-0.5-0.2
		c-0.1-0.2-0.2-0.4-0.2-0.7v-10.4h-2.8v11.3c0,0.8,0.2,1.4,0.5,1.8c0.3,0.4,0.8,0.6,1.4,0.6c0.5,0,1.1-0.1,1.6-0.4
		c0.5-0.3,1.1-0.7,1.6-1.3v1.5h2.8v-13.6H152.9z M144.4,124.1c-0.7-0.7-1.7-1-2.8-1c-1.3,0-2.3,0.3-3,1c-0.7,0.6-1.1,1.4-1.1,2.5v7
		c0,1.2,0.4,2.1,1.1,2.7c0.7,0.7,1.7,1,2.9,1c1.3,0,2.3-0.3,3-1c0.7-0.7,1.1-1.5,1.1-2.7v-7C145.5,125.6,145.1,124.8,144.4,124.1z
		 M142.6,133.9c0,0.4-0.1,0.6-0.3,0.8c-0.2,0.2-0.5,0.3-0.9,0.3c-0.4,0-0.7-0.1-0.8-0.3c-0.2-0.2-0.3-0.5-0.3-0.8v-7.4
		c0-0.3,0.1-0.5,0.3-0.7c0.2-0.2,0.5-0.3,0.8-0.3c0.4,0,0.7,0.1,0.9,0.3c0.2,0.2,0.3,0.4,0.3,0.7V133.9z M134,118.7l-1.9,7.4h-0.2
		l-2-7.4h-3.2l3.7,11.1v7.3h3.1v-7.6l3.6-10.8H134z M155.7,151c0.2,0.2,0.2,0.6,0.2,1.1v1.3h-2.1v-1.3c0-0.5,0.1-0.9,0.2-1.1
		c0.2-0.2,0.4-0.4,0.8-0.4C155.3,150.7,155.5,150.8,155.7,151z M147.1,151c-0.2-0.2-0.4-0.3-0.8-0.3c-0.2,0-0.4,0-0.5,0.1
		c-0.2,0.1-0.4,0.2-0.5,0.4v7.7c0.2,0.2,0.4,0.4,0.6,0.4c0.2,0.1,0.4,0.1,0.6,0.1c0.3,0,0.5-0.1,0.7-0.3c0.1-0.2,0.2-0.4,0.2-0.8
		v-6.4C147.4,151.5,147.3,151.2,147.1,151z M147.1,151c-0.2-0.2-0.4-0.3-0.8-0.3c-0.2,0-0.4,0-0.5,0.1c-0.2,0.1-0.4,0.2-0.5,0.4v7.7
		c0.2,0.2,0.4,0.4,0.6,0.4c0.2,0.1,0.4,0.1,0.6,0.1c0.3,0,0.5-0.1,0.7-0.3c0.1-0.2,0.2-0.4,0.2-0.8v-6.4
		C147.4,151.5,147.3,151.2,147.1,151z M161.1,141.5h-38.6c-4.2,0-7.7,3.5-7.7,7.7v7.9c0,4.2,3.5,7.7,7.7,7.7h38.6
		c4.2,0,7.7-3.5,7.7-7.7v-7.9C168.8,145,165.3,141.5,161.1,141.5z M132.9,146.9H130v14.3h-2.8v-14.3h-2.9v-2.4h8.5V146.9z
		 M141,161.2h-2.5v-1.4c-0.4,0.5-0.9,0.9-1.4,1.1c-0.5,0.3-1,0.4-1.4,0.4c-0.6,0-1-0.2-1.3-0.6c-0.3-0.4-0.4-0.9-0.4-1.6v-10.3h2.4
		v9.5c0,0.3,0.1,0.5,0.2,0.6c0.1,0.1,0.3,0.2,0.5,0.2c0.2,0,0.4-0.1,0.7-0.3c0.3-0.2,0.5-0.4,0.8-0.7v-9.4h2.5V161.2z M149.9,158.6
		c0,0.9-0.2,1.6-0.6,2c-0.4,0.5-1,0.7-1.7,0.7c-0.5,0-0.9-0.1-1.3-0.3c-0.4-0.2-0.7-0.5-1.1-0.8v1h-2.5v-16.7h2.5v5.4
		c0.3-0.4,0.7-0.7,1.1-0.8c0.4-0.2,0.8-0.3,1.1-0.3c0.8,0,1.4,0.3,1.8,0.8c0.4,0.5,0.6,1.3,0.6,2.3V158.6z M158.5,155.3h-4.7v2.3
		c0,0.7,0.1,1.1,0.2,1.3c0.2,0.3,0.5,0.4,0.8,0.4c0.4,0,0.7-0.1,0.8-0.3c0.2-0.2,0.2-0.7,0.2-1.4v-0.6h2.6v0.6c0,1.3-0.3,2.2-1,2.9
		c-0.6,0.7-1.5,1-2.7,1c-1.1,0-2-0.3-2.6-1c-0.6-0.7-1-1.6-1-2.8v-5.5c0-1.1,0.4-1.9,1.1-2.6c0.7-0.7,1.6-1,2.7-1c1.1,0,2,0.3,2.6,1
		c0.6,0.6,0.9,1.5,0.9,2.7V155.3z M146.4,150.7c-0.2,0-0.4,0-0.5,0.1c-0.2,0.1-0.4,0.2-0.5,0.4v7.7c0.2,0.2,0.4,0.4,0.6,0.4
		c0.2,0.1,0.4,0.1,0.6,0.1c0.3,0,0.5-0.1,0.7-0.3c0.1-0.2,0.2-0.4,0.2-0.8v-6.4c0-0.4-0.1-0.7-0.3-0.9
		C147,150.8,146.7,150.7,146.4,150.7z M147.1,151c-0.2-0.2-0.4-0.3-0.8-0.3c-0.2,0-0.4,0-0.5,0.1c-0.2,0.1-0.4,0.2-0.5,0.4v7.7
		c0.2,0.2,0.4,0.4,0.6,0.4c0.2,0.1,0.4,0.1,0.6,0.1c0.3,0,0.5-0.1,0.7-0.3c0.1-0.2,0.2-0.4,0.2-0.8v-6.4
		C147.4,151.5,147.3,151.2,147.1,151z M147.1,151c-0.2-0.2-0.4-0.3-0.8-0.3c-0.2,0-0.4,0-0.5,0.1c-0.2,0.1-0.4,0.2-0.5,0.4v7.7
		c0.2,0.2,0.4,0.4,0.6,0.4c0.2,0.1,0.4,0.1,0.6,0.1c0.3,0,0.5-0.1,0.7-0.3c0.1-0.2,0.2-0.4,0.2-0.8v-6.4
		C147.4,151.5,147.3,151.2,147.1,151z"/>
</g>
</svg>
